<svg xmlns="http://www.w3.org/2000/svg" xmlns:xlink="http://www.w3.org/1999/xlink" width="500" zoomAndPan="magnify" viewBox="0 0 375 374.999991" height="500" preserveAspectRatio="xMidYMid meet" version="1.0"><defs><clipPath id="cd4bc401c0"><path d="M 0 115.078125 L 375 115.078125 L 375 259.828125 L 0 259.828125 Z M 0 115.078125 " clip-rule="nonzero"/></clipPath></defs><g clip-path="url(#cd4bc401c0)"><path fill="#d9d9d9" d="M 150.75 115.078125 C 150.273438 115.078125 149.796875 115.242188 149.605469 115.574219 L 147.957031 118.417969 C 147.625 118.992188 147.632812 119.722656 147.632812 120.386719 L 147.632812 126.300781 L 140.1875 126.300781 L 138.714844 129.558594 L 138.03125 130.742188 L 120.144531 130.761719 L 120.136719 131.566406 L 114.882812 138.230469 L 94.738281 138.230469 L 93.785156 139.855469 L 0.113281 139.214844 L 0.113281 142.308594 L 91.183594 144.3125 L 89.039062 147.96875 L 89.039062 156.398438 L 90.246094 155.519531 L 112.695312 155.519531 L 115 163.398438 L 115.542969 161.210938 L 117.1875 161.210938 L 119.804688 163.828125 L 119.710938 173.144531 C 114.710938 174.453125 112.730469 172.484375 110.949219 171.605469 C 109.492188 173.753906 106.167969 175.988281 103.5 177.957031 L 93.425781 177.957031 L 91.886719 179.050781 L 83.566406 179.050781 L 78.558594 188.144531 C 75.621094 187.445312 75.917969 184.96875 76.992188 183.753906 L 76.226562 182.117188 C 73.042969 184.363281 72.359375 187.09375 72.582031 190 L 70.535156 190 L 70.339844 190.335938 L 67.027344 190.335938 L 67.027344 191.421875 L 58.707031 191.421875 L 58.707031 192.402344 L 67.027344 192.402344 L 67.027344 193.058594 L 70.3125 193.058594 L 70.679688 193.695312 L 73.21875 193.695312 C 73.441406 194.648438 73.683594 195.605469 73.902344 196.558594 C 49.621094 194.554688 29.324219 196.332031 28.152344 216.265625 L 36.472656 220.28125 L 40.199219 232.898438 L 47.648438 239.90625 L 89.957031 259.335938 C 90.792969 259.71875 91.390625 259.820312 92.273438 259.820312 L 315.21875 259.820312 C 316.027344 259.820312 316.609375 259.703125 317.332031 259.421875 L 362.625 241.761719 L 370.59375 236.722656 L 373.691406 227.898438 L 374.769531 217.578125 L 374.890625 217.578125 L 368.757812 211.445312 L 374.234375 203.128906 L 365.910156 198.972656 L 367.882812 195.902344 L 371.605469 195.902344 L 372.042969 165.476562 L 370.660156 165.476562 C 370.601562 164.71875 369.972656 164.128906 369.199219 164.128906 C 368.421875 164.128906 367.792969 164.71875 367.734375 165.476562 L 346.890625 165.476562 C 346.832031 164.71875 346.203125 164.128906 345.429688 164.128906 C 344.652344 164.128906 344.023438 164.71875 343.964844 165.476562 L 338.3125 165.476562 L 329.53125 174.242188 C 317.984375 166.296875 307 165.707031 296.019531 165.707031 L 279.003906 165.707031 C 278.820312 165.222656 278.4375 164.890625 277.992188 164.890625 C 277.550781 164.890625 277.167969 165.222656 276.984375 165.707031 L 264.328125 165.707031 C 264.144531 165.222656 263.757812 164.890625 263.316406 164.890625 C 262.875 164.890625 262.496094 165.226562 262.3125 165.707031 L 257.207031 165.707031 C 257.023438 165.222656 256.644531 164.890625 256.203125 164.890625 C 255.761719 164.890625 255.375 165.222656 255.191406 165.707031 L 229.480469 165.707031 L 228.671875 162.710938 L 234.898438 162.710938 L 229.953125 149.6875 L 231.140625 149.246094 C 232.058594 148.90625 232.527344 147.886719 232.195312 146.964844 C 231.863281 146.042969 230.859375 145.578125 229.941406 145.921875 L 228.691406 146.382812 L 226.511719 140.648438 L 230.96875 139 C 231.972656 138.632812 231.386719 137.597656 230.527344 137.90625 L 226.078125 139.503906 L 221.734375 128.070312 L 219.042969 128.070312 C 217.003906 123.542969 212.4375 120.394531 207.125 120.394531 C 201.816406 120.394531 197.246094 123.542969 195.175781 128.070312 L 191.128906 128.070312 L 191.128906 127.6875 C 191.128906 126.535156 190.207031 125.605469 189.054688 125.605469 C 187.902344 125.605469 186.976562 126.535156 186.976562 127.6875 L 186.976562 128.070312 L 167.628906 128.070312 L 166.605469 126.304688 L 161.828125 126.304688 C 161.804688 125.183594 161.144531 124.292969 160.324219 124.292969 C 159.503906 124.292969 158.835938 125.183594 158.8125 126.304688 L 153.902344 126.304688 L 153.902344 120.394531 C 153.902344 119.726562 153.910156 119 153.578125 118.421875 L 151.929688 115.578125 C 151.742188 115.246094 151.257812 115.085938 150.78125 115.085938 Z M 63.496094 233.410156 L 71.308594 236.507812 C 71.417969 238.335938 71.746094 240.109375 72.257812 241.796875 C 71.789062 241.363281 70.972656 241.125 70.527344 241.429688 L 67.824219 243.300781 C 67.277344 243.679688 66.976562 244.34375 66.695312 244.945312 L 65.785156 246.855469 L 55.359375 241.945312 L 56.457031 239.617188 C 56.738281 239.015625 57.058594 238.363281 57.003906 237.699219 L 57.003906 237.679688 C 59.410156 236.628906 61.601562 235.179688 63.496094 233.414062 Z M 117.433594 236.566406 L 127.414062 236.566406 C 128.125 248.683594 138.179688 258.289062 150.480469 258.289062 C 154.46875 258.289062 158.222656 257.277344 161.5 255.5 C 161.492188 255.695312 161.492188 255.886719 161.492188 256.074219 L 161.492188 258.390625 L 129.292969 258.390625 L 129.292969 256.074219 C 129.292969 255.410156 129.300781 254.679688 128.964844 254.105469 L 127.320312 251.261719 C 126.9375 250.597656 125.40625 250.597656 125.023438 251.261719 L 123.375 254.105469 C 123.042969 254.679688 123.050781 255.410156 123.050781 256.074219 L 123.050781 258.390625 L 110.453125 258.390625 L 110.453125 256.074219 C 110.453125 255.410156 110.460938 254.679688 110.128906 254.105469 L 109.316406 252.695312 C 113.957031 248.761719 117.023438 243.023438 117.433594 236.566406 Z M 173.542969 236.566406 L 186.425781 236.566406 C 187.136719 248.683594 197.191406 258.289062 209.492188 258.289062 C 213.179688 258.289062 216.660156 257.425781 219.75 255.894531 C 219.75 255.953125 219.75 256.015625 219.75 256.074219 L 219.75 258.390625 L 187.113281 258.390625 L 187.113281 256.074219 C 187.113281 255.410156 187.121094 254.679688 186.785156 254.105469 L 185.140625 251.261719 C 184.757812 250.597656 183.226562 250.597656 182.84375 251.261719 L 181.195312 254.105469 C 180.863281 254.679688 180.871094 255.410156 180.871094 256.074219 L 180.871094 258.390625 L 167.730469 258.390625 L 167.730469 256.074219 C 167.730469 255.410156 167.742188 254.679688 167.40625 254.105469 L 166.234375 252.085938 C 170.441406 248.164062 173.183594 242.6875 173.542969 236.570312 Z M 232.558594 236.566406 L 238 236.566406 C 238.707031 248.683594 248.761719 258.289062 261.066406 258.289062 C 273.367188 258.289062 283.421875 248.683594 284.132812 236.566406 L 288.96875 236.566406 C 289.433594 243.363281 292.804688 249.359375 297.851562 253.320312 L 297.398438 254.105469 C 297.066406 254.679688 297.074219 255.410156 297.074219 256.074219 L 297.074219 258.390625 L 284.539062 258.390625 L 284.539062 256.074219 C 284.539062 255.410156 284.546875 254.679688 284.214844 254.105469 L 282.566406 251.261719 C 282.183594 250.597656 280.652344 250.597656 280.269531 251.261719 L 278.625 254.105469 C 278.289062 254.679688 278.296875 255.410156 278.296875 256.074219 L 278.296875 258.390625 L 246.125 258.390625 L 246.125 256.074219 C 246.125 255.410156 246.132812 254.679688 245.800781 254.105469 L 244.152344 251.261719 C 243.769531 250.597656 242.238281 250.597656 241.855469 251.261719 L 240.207031 254.105469 C 239.875 254.679688 239.882812 255.410156 239.882812 256.074219 L 239.882812 258.390625 L 225.992188 258.390625 L 225.992188 256.074219 C 225.992188 255.410156 226 254.679688 225.667969 254.105469 L 224.757812 252.535156 C 229.25 248.585938 232.1875 242.917969 232.558594 236.566406 Z M 335.539062 236.566406 L 342.226562 236.566406 C 346.171875 239.617188 351.125 241.4375 356.496094 241.4375 C 358.304688 241.4375 360.066406 241.230469 361.757812 240.839844 L 342.425781 248.28125 L 341.507812 245.984375 C 341.265625 245.367188 341.007812 244.6875 340.488281 244.273438 L 337.910156 242.226562 C 337.3125 241.753906 335.882812 242.316406 335.769531 243.074219 L 335.289062 246.324219 C 335.191406 246.984375 335.464844 247.65625 335.710938 248.273438 L 336.597656 250.523438 L 322.226562 256.054688 C 329.671875 252.535156 334.953125 245.195312 335.539062 236.566406 Z M 72.652344 242.980469 C 74.171875 247.148438 76.855469 250.75 80.308594 253.402344 L 71.460938 249.449219 L 72.335938 247.605469 C 72.617188 247.003906 72.933594 246.351562 72.875 245.691406 Z M 104.207031 255.988281 C 104.207031 256.019531 104.207031 256.046875 104.207031 256.078125 L 104.207031 258.394531 L 91.484375 258.394531 L 90.128906 257.789062 C 91.503906 258.046875 92.917969 258.175781 94.371094 258.175781 C 97.886719 258.175781 101.222656 257.394531 104.207031 255.988281 Z M 303.308594 256.515625 C 305.96875 257.621094 308.882812 258.242188 311.933594 258.285156 L 311.765625 258.394531 L 303.308594 258.394531 Z M 303.308594 256.515625 " fill-opacity="1" fill-rule="nonzero"/></g></svg>