<svg xmlns="http://www.w3.org/2000/svg" xmlns:xlink="http://www.w3.org/1999/xlink" width="500" zoomAndPan="magnify" viewBox="0 0 375 374.999991" height="500" preserveAspectRatio="xMidYMid meet" version="1.0"><defs><clipPath id="b92d359978"><path d="M 57.890625 0 L 317.390625 0 L 317.390625 375 L 57.890625 375 Z M 57.890625 0 " clip-rule="nonzero"/></clipPath></defs><g clip-path="url(#b92d359978)"><path fill="#d9d9d9" d="M 57.890625 271.34375 L 57.890625 266.949219 L 60.457031 264.386719 L 60.457031 255.234375 L 63.386719 255.234375 L 63.019531 260.726562 L 149.519531 177.613281 C 149.289062 172.128906 149.488281 165.101562 150.988281 157.113281 C 152.59375 148.519531 155.203125 141.476562 157.585938 136.242188 C 158.195312 126.476562 158.804688 116.714844 159.417969 106.949219 L 175.40625 106.949219 L 175.40625 71.070312 L 172 71.070312 L 172 68.386719 L 175.40625 68.386719 L 175.40625 62.527344 L 173.34375 62.527344 L 173.464844 59.476562 L 175.40625 59.476562 C 174.691406 48.183594 175.257812 32.519531 181.039062 15.234375 C 182.929688 9.582031 185.128906 4.515625 187.394531 0.0390625 C 189.566406 4.269531 191.667969 9.027344 193.5 14.320312 C 199.441406 31.480469 200.054688 47.113281 199.367188 58.378906 L 201.320312 58.378906 L 201.320312 62.648438 L 199.242188 62.648438 L 199.367188 67.652344 L 202.664062 67.652344 L 202.664062 70.460938 L 199.488281 70.582031 L 200.097656 106.585938 L 215.738281 106.707031 L 217.449219 136.242188 C 219.8125 141.398438 222.285156 147.914062 224.105469 155.648438 C 226.15625 164.347656 226.785156 172.082031 226.855469 178.222656 C 255.363281 206.171875 283.871094 234.121094 312.382812 262.070312 L 312.382812 257.308594 L 315.191406 257.308594 L 315.191406 264.386719 L 317.390625 268.539062 L 317.390625 273.722656 L 302.914062 301.734375 L 301.996094 298.621094 L 266.078125 290.933594 L 228.144531 290.933594 L 228.695312 312.535156 L 241.339844 327.363281 L 241.523438 319.125 L 273.042969 355.554688 C 273.453125 357.144531 273.558594 358.566406 273.523438 359.765625 C 273.269531 368.308594 265.644531 373.855469 264.0625 374.960938 C 250.746094 372.515625 237.429688 370.078125 224.113281 367.636719 L 222.644531 370.746094 L 214.214844 346.765625 L 214.035156 337.792969 C 214.121094 336.675781 213.492188 335.835938 212.933594 335.78125 C 212.335938 335.71875 211.460938 336.523438 211.464844 337.792969 L 211.464844 347.679688 L 192.40625 348.046875 L 190.207031 338.523438 L 188.742188 338.523438 L 189.105469 347.3125 L 185.625 347.3125 L 185.804688 338.523438 L 183.789062 338.707031 L 183.058594 347.496094 L 163.816406 347.496094 L 163.632812 337.242188 C 163.648438 336.285156 163.035156 335.570312 162.472656 335.523438 C 161.832031 335.472656 160.980469 336.265625 161.066406 337.425781 L 161.25 346.949219 L 153.554688 370.378906 L 151.355469 367.269531 L 110.484375 374.957031 C 109.800781 374.496094 100.691406 368.128906 101.507812 359.03125 C 101.632812 357.625 102.042969 355.617188 103.335938 353.355469 C 113.050781 342.066406 122.765625 330.777344 132.476562 319.488281 L 133.027344 326.996094 L 146.21875 312.714844 L 146.035156 290.746094 L 109.386719 290.746094 L 73.285156 297.339844 C 73.039062 299.046875 72.796875 300.753906 72.550781 302.464844 C 67.664062 292.09375 62.777344 281.71875 57.890625 271.34375 Z M 57.890625 271.34375 " fill-opacity="1" fill-rule="nonzero"/></g></svg>