<svg xmlns="http://www.w3.org/2000/svg" xmlns:xlink="http://www.w3.org/1999/xlink" width="500" zoomAndPan="magnify" viewBox="0 0 375 374.999991" height="500" preserveAspectRatio="xMidYMid meet" version="1.0"><defs><clipPath id="933368eafb"><path d="M 0 92.421875 L 375 92.421875 L 375 280 L 0 280 Z M 0 92.421875 " clip-rule="nonzero"/></clipPath></defs><g clip-path="url(#933368eafb)"><path fill="#d9d9d9" d="M 374.3125 201.304688 L 372.511719 199.5 C 372.074219 199.023438 371.535156 198.78125 370.890625 198.777344 L 367.285156 198.777344 L 366.582031 194.824219 L 366.582031 181.097656 C 361.769531 179.824219 356.949219 178.652344 352.117188 177.53125 L 347.945312 174.886719 C 347.792969 174.796875 347.632812 174.730469 347.457031 174.6875 L 316.820312 167.59375 C 316.242188 167.457031 315.703125 167.648438 315.621094 168.015625 L 315.132812 170.113281 C 315.109375 170.203125 315.109375 170.292969 315.132812 170.382812 C 308.808594 169.402344 302.464844 168.539062 296.101562 167.792969 L 283.601562 129.257812 C 283.433594 128.707031 283.183594 128.199219 282.855469 127.730469 C 282.523438 127.261719 282.128906 126.855469 281.667969 126.515625 C 281.207031 126.171875 280.703125 125.914062 280.160156 125.734375 C 279.613281 125.554688 279.054688 125.464844 278.484375 125.464844 L 251.933594 124.328125 L 250.132812 119.597656 C 249.816406 118.777344 248.328125 118.179688 246.644531 118.179688 L 224.71875 118.179688 L 224.71875 106.441406 L 245.320312 106.441406 L 245.320312 104.636719 L 261.0625 104.636719 C 261.28125 104.636719 261.488281 104.597656 261.6875 104.511719 C 261.886719 104.429688 262.0625 104.3125 262.214844 104.160156 C 262.371094 104.003906 262.488281 103.828125 262.570312 103.628906 C 262.652344 103.429688 262.695312 103.21875 262.695312 103.003906 L 262.695312 102.570312 L 309.554688 102.570312 L 309.554688 99.464844 L 262.632812 99.464844 C 262.535156 99.109375 262.339844 98.820312 262.050781 98.597656 C 261.757812 98.375 261.429688 98.261719 261.0625 98.261719 L 245.320312 98.261719 L 245.320312 95.554688 L 227.871094 95.554688 L 221.761719 92.703125 C 220.683594 92.5 219.597656 92.410156 218.5 92.429688 L 200.683594 92.429688 C 198.628906 92.429688 196.960938 92.664062 196.960938 92.945312 L 196.960938 95.554688 L 189.390625 95.554688 C 189.171875 95.554688 188.960938 95.597656 188.757812 95.679688 C 188.554688 95.765625 188.378906 95.886719 188.222656 96.042969 C 188.070312 96.199219 187.949219 96.378906 187.867188 96.582031 C 187.78125 96.785156 187.742188 96.996094 187.742188 97.214844 L 187.742188 104.773438 C 187.742188 104.992188 187.78125 105.203125 187.867188 105.40625 C 187.949219 105.609375 188.070312 105.789062 188.222656 105.945312 C 188.378906 106.101562 188.554688 106.222656 188.757812 106.308594 C 188.960938 106.390625 189.171875 106.433594 189.390625 106.433594 L 215.265625 106.433594 L 215.265625 118.171875 L 200.511719 118.171875 C 198.546875 118.171875 196.960938 118.949219 196.960938 119.90625 L 196.960938 122.035156 L 132.320312 119.378906 L 60.949219 140.660156 L 58.992188 138.648438 L 40.96875 143.476562 C 40.757812 143.566406 40.574219 143.691406 40.414062 143.855469 C 40.257812 144.019531 40.132812 144.207031 40.050781 144.417969 C 39.964844 144.628906 39.925781 144.851562 39.925781 145.078125 C 39.929688 145.304688 39.976562 145.523438 40.066406 145.734375 L 40.066406 145.835938 L 40.453125 146.738281 L 12.808594 154.988281 L 12.808594 98.914062 L 11.003906 98.914062 L 11.003906 155.585938 L 4.941406 157.390625 L 4.941406 203.5 C 3.644531 203.574219 2.496094 204.019531 1.488281 204.835938 C 0.101562 205.738281 1.289062 209.9375 4.136719 214.105469 C 4.570312 214.738281 5.039062 215.316406 5.453125 215.867188 C 5.746094 216.683594 6.15625 217.433594 6.683594 218.121094 C 7.207031 218.8125 7.824219 219.40625 8.53125 219.902344 C 9.238281 220.402344 10.007812 220.78125 10.832031 221.042969 C 11.65625 221.304688 12.5 221.4375 13.367188 221.4375 L 42.105469 221.347656 C 41.734375 222.046875 41.386719 222.753906 41.0625 223.472656 C 40.738281 224.191406 40.433594 224.917969 40.15625 225.65625 C 39.875 226.394531 39.617188 227.140625 39.382812 227.894531 C 39.148438 228.644531 38.933594 229.40625 38.746094 230.171875 C 38.558594 230.9375 38.394531 231.710938 38.253906 232.488281 C 38.113281 233.261719 37.996094 234.042969 37.902344 234.828125 C 37.808594 235.609375 37.738281 236.394531 37.695312 237.183594 C 37.648438 237.972656 37.628906 238.761719 37.632812 239.550781 C 37.636719 240.339844 37.664062 241.128906 37.714844 241.914062 C 37.765625 242.703125 37.84375 243.488281 37.941406 244.269531 C 38.042969 245.054688 38.167969 245.832031 38.3125 246.605469 C 38.460938 247.382812 38.632812 248.152344 38.828125 248.917969 C 39.023438 249.679688 39.242188 250.441406 39.484375 251.191406 C 39.722656 251.941406 39.988281 252.683594 40.277344 253.421875 C 40.5625 254.15625 40.871094 254.878906 41.203125 255.597656 C 41.535156 256.3125 41.886719 257.015625 42.261719 257.710938 C 42.636719 258.40625 43.03125 259.085938 43.449219 259.757812 C 43.867188 260.425781 44.300781 261.082031 44.757812 261.726562 C 45.214844 262.371094 45.691406 262.996094 46.1875 263.613281 C 46.683594 264.226562 47.195312 264.824219 47.730469 265.40625 C 48.261719 265.988281 48.808594 266.550781 49.375 267.101562 C 49.945312 267.648438 50.527344 268.179688 51.125 268.691406 C 51.726562 269.203125 52.339844 269.695312 52.96875 270.171875 C 53.597656 270.644531 54.242188 271.101562 54.898438 271.535156 C 55.554688 271.96875 56.226562 272.386719 56.910156 272.777344 C 57.589844 273.171875 58.285156 273.542969 58.992188 273.894531 C 59.695312 274.246094 60.414062 274.574219 61.136719 274.882812 C 61.863281 275.1875 62.597656 275.472656 63.339844 275.734375 C 64.085938 275.996094 64.835938 276.234375 65.59375 276.449219 C 66.351562 276.667969 67.113281 276.859375 67.882812 277.027344 C 68.652344 277.195312 69.429688 277.339844 70.207031 277.460938 C 70.984375 277.582031 71.765625 277.679688 72.550781 277.75 C 73.335938 277.824219 74.121094 277.871094 74.90625 277.894531 C 75.695312 277.921875 76.484375 277.921875 77.269531 277.898438 C 78.058594 277.871094 78.84375 277.824219 79.628906 277.75 C 80.414062 277.679688 81.195312 277.582031 81.972656 277.460938 C 82.75 277.339844 83.523438 277.195312 84.292969 277.027344 C 85.0625 276.859375 85.828125 276.667969 86.585938 276.453125 C 87.34375 276.238281 88.09375 276 88.835938 275.738281 C 89.582031 275.476562 90.316406 275.191406 91.039062 274.886719 C 91.765625 274.578125 92.484375 274.25 93.1875 273.898438 C 93.894531 273.550781 94.589844 273.175781 95.269531 272.785156 C 95.953125 272.390625 96.625 271.976562 97.28125 271.542969 C 97.9375 271.105469 98.582031 270.652344 99.210938 270.175781 C 99.839844 269.703125 100.457031 269.210938 101.054688 268.699219 C 101.65625 268.1875 102.238281 267.65625 102.804688 267.109375 C 103.371094 266.558594 103.921875 265.996094 104.453125 265.414062 C 104.984375 264.832031 105.5 264.234375 105.996094 263.621094 C 106.488281 263.007812 106.964844 262.378906 107.421875 261.734375 C 107.878906 261.09375 108.316406 260.4375 108.734375 259.765625 C 109.152344 259.097656 109.546875 258.414062 109.921875 257.71875 C 110.296875 257.027344 110.648438 256.320312 110.980469 255.605469 C 111.3125 254.890625 111.621094 254.164062 111.910156 253.429688 C 112.195312 252.695312 112.460938 251.953125 112.703125 251.199219 C 112.945312 250.449219 113.164062 249.691406 113.359375 248.925781 C 113.554688 248.164062 113.722656 247.390625 113.871094 246.617188 C 114.019531 245.84375 114.144531 245.0625 114.246094 244.28125 C 114.34375 243.496094 114.421875 242.710938 114.472656 241.925781 C 114.523438 241.136719 114.550781 240.347656 114.554688 239.558594 C 114.558594 238.769531 114.539062 237.980469 114.496094 237.195312 C 114.449219 236.40625 114.382812 235.621094 114.289062 234.835938 C 114.195312 234.054688 114.078125 233.273438 113.9375 232.496094 C 113.796875 231.71875 113.632812 230.949219 113.445312 230.183594 C 113.257812 229.414062 113.046875 228.65625 112.808594 227.902344 L 126.265625 240.542969 C 127.027344 241.277344 127.898438 241.84375 128.878906 242.242188 C 129.859375 242.640625 130.875 242.84375 131.933594 242.855469 L 269.8125 242.855469 C 274.167969 242.855469 277.789062 239.242188 278.527344 234.476562 C 279.21875 229.636719 280.777344 225.097656 283.203125 220.859375 L 286.863281 220.859375 C 286.261719 221.828125 285.703125 222.820312 285.1875 223.839844 C 284.671875 224.855469 284.203125 225.894531 283.78125 226.957031 C 283.355469 228.015625 282.980469 229.089844 282.652344 230.183594 C 282.328125 231.277344 282.046875 232.382812 281.820312 233.5 C 281.589844 234.617188 281.410156 235.742188 281.28125 236.878906 C 281.152344 238.011719 281.070312 239.148438 281.042969 240.289062 C 281.015625 241.429688 281.035156 242.570312 281.109375 243.707031 C 281.179688 244.847656 281.304688 245.980469 281.476562 247.109375 C 281.648438 248.238281 281.871094 249.355469 282.144531 250.460938 C 282.414062 251.570312 282.734375 252.664062 283.105469 253.746094 C 283.472656 254.824219 283.890625 255.886719 284.351562 256.925781 C 284.816406 257.96875 285.324219 258.992188 285.878906 259.988281 C 286.429688 260.984375 287.027344 261.957031 287.667969 262.898438 C 288.304688 263.84375 288.988281 264.757812 289.707031 265.640625 C 290.429688 266.527344 291.1875 267.375 291.984375 268.191406 C 292.777344 269.007812 293.609375 269.789062 294.472656 270.53125 C 295.339844 271.273438 296.234375 271.972656 297.164062 272.636719 C 298.089844 273.300781 299.046875 273.917969 300.027344 274.496094 C 301.011719 275.074219 302.015625 275.605469 303.046875 276.09375 C 304.074219 276.582031 305.125 277.023438 306.195312 277.417969 C 307.261719 277.8125 308.347656 278.160156 309.445312 278.457031 C 310.546875 278.753906 311.65625 279.003906 312.777344 279.203125 C 313.898438 279.402344 315.027344 279.550781 316.160156 279.652344 C 317.296875 279.75 318.433594 279.796875 319.574219 279.796875 C 320.710938 279.792969 321.847656 279.738281 322.984375 279.636719 C 324.117188 279.53125 325.246094 279.378906 326.363281 279.175781 C 327.484375 278.972656 328.59375 278.71875 329.695312 278.414062 C 330.792969 278.113281 331.875 277.761719 332.941406 277.363281 C 334.007812 276.964844 335.054688 276.519531 336.082031 276.027344 C 337.113281 275.535156 338.113281 274.996094 339.09375 274.414062 C 340.074219 273.832031 341.027344 273.210938 341.953125 272.542969 C 342.875 271.878906 343.769531 271.171875 344.632812 270.425781 C 345.496094 269.679688 346.320312 268.898438 347.113281 268.078125 C 347.90625 267.257812 348.660156 266.40625 349.378906 265.519531 C 350.09375 264.632812 350.773438 263.714844 351.40625 262.765625 C 352.042969 261.820312 352.636719 260.847656 353.183594 259.847656 C 353.734375 258.847656 354.238281 257.824219 354.699219 256.78125 C 355.15625 255.738281 355.566406 254.675781 355.933594 253.59375 C 356.296875 252.511719 356.613281 251.417969 356.878906 250.308594 C 357.148438 249.199219 357.367188 248.078125 357.535156 246.949219 C 357.703125 245.820312 357.820312 244.6875 357.886719 243.550781 C 357.953125 242.410156 357.972656 241.269531 357.9375 240.128906 C 357.90625 238.988281 357.820312 237.851562 357.6875 236.71875 C 357.550781 235.585938 357.367188 234.460938 357.132812 233.34375 C 356.898438 232.226562 356.617188 231.121094 356.285156 230.03125 C 355.953125 228.941406 355.574219 227.863281 355.144531 226.808594 C 354.71875 225.75 354.246094 224.710938 353.726562 223.695312 C 353.207031 222.679688 352.644531 221.691406 352.035156 220.726562 L 359.761719 220.726562 C 364.085938 220.726562 368.121094 219.351562 370.484375 217.113281 L 369.773438 213.113281 L 373.207031 213.566406 C 373.433594 213.566406 373.65625 213.523438 373.867188 213.4375 C 374.078125 213.351562 374.265625 213.226562 374.429688 213.0625 C 374.589844 212.902344 374.714844 212.714844 374.804688 212.503906 C 374.890625 212.292969 374.9375 212.070312 374.9375 211.839844 L 374.9375 202.886719 C 374.953125 202.269531 374.746094 201.742188 374.3125 201.304688 Z M 374.3125 201.304688 " fill-opacity="1" fill-rule="nonzero"/></g></svg>