<svg xmlns="http://www.w3.org/2000/svg" xmlns:xlink="http://www.w3.org/1999/xlink" width="500" zoomAndPan="magnify" viewBox="0 0 375 374.999991" height="500" preserveAspectRatio="xMidYMid meet" version="1.0"><defs><clipPath id="4d40f64dc0"><path d="M 207 135.46875 L 210 135.46875 L 210 189 L 207 189 Z M 207 135.46875 " clip-rule="nonzero"/></clipPath><clipPath id="86c5e59d26"><path d="M 0 215 L 375 215 L 375 239.71875 L 0 239.71875 Z M 0 215 " clip-rule="nonzero"/></clipPath></defs><g clip-path="url(#4d40f64dc0)"><path fill="#d9d9d9" d="M 207.335938 135.578125 L 207.335938 188.230469 L 209.496094 188.230469 L 207.675781 135.578125 Z M 207.335938 135.578125 " fill-opacity="1" fill-rule="nonzero"/></g><path fill="#d9d9d9" d="M 231.414062 212.179688 L 198.015625 212.179688 C 201.429688 202.582031 202.0625 192.207031 202.242188 179.457031 L 222.964844 179.457031 C 223.304688 192.210938 226.292969 201.273438 231.414062 212.179688 Z M 231.414062 212.179688 " fill-opacity="1" fill-rule="nonzero"/><path fill="#d9d9d9" d="M 231.414062 212.558594 L 198.015625 212.558594 C 197.894531 212.558594 197.78125 212.496094 197.710938 212.398438 C 197.640625 212.296875 197.621094 212.171875 197.664062 212.054688 C 200.921875 202.886719 201.671875 193.160156 201.867188 179.453125 C 201.871094 179.246094 202.035156 179.082031 202.242188 179.082031 L 222.964844 179.082031 C 223.167969 179.082031 223.335938 179.242188 223.339844 179.445312 C 223.683594 192.382812 226.8125 201.5 231.753906 212.019531 C 231.808594 212.136719 231.800781 212.273438 231.730469 212.382812 C 231.664062 212.492188 231.542969 212.558594 231.414062 212.558594 Z M 198.542969 211.804688 L 230.824219 211.804688 C 226.035156 201.519531 222.988281 192.488281 222.601562 179.832031 L 202.609375 179.832031 C 202.410156 193.175781 201.664062 202.769531 198.542969 211.804688 Z M 198.542969 211.804688 " fill-opacity="1" fill-rule="nonzero"/><path fill="#d9d9d9" d="M 195.773438 187.023438 L 229.171875 187.023438 L 229.171875 190.480469 L 195.773438 190.480469 Z M 195.773438 187.023438 " fill-opacity="1" fill-rule="nonzero"/><path fill="#d9d9d9" d="M 229.171875 190.855469 L 195.773438 190.855469 C 195.566406 190.855469 195.398438 190.6875 195.398438 190.480469 L 195.398438 187.023438 C 195.398438 186.8125 195.566406 186.644531 195.773438 186.644531 L 229.171875 186.644531 C 229.378906 186.644531 229.546875 186.8125 229.546875 187.023438 L 229.546875 190.480469 C 229.546875 190.6875 229.378906 190.855469 229.171875 190.855469 Z M 196.148438 190.105469 L 228.796875 190.105469 L 228.796875 187.398438 L 196.148438 187.398438 Z M 196.148438 190.105469 " fill-opacity="1" fill-rule="nonzero"/><path fill="#d9d9d9" d="M 200.109375 177.574219 L 224.445312 177.574219 L 224.445312 180.234375 L 200.109375 180.234375 Z M 200.109375 177.574219 " fill-opacity="1" fill-rule="nonzero"/><path fill="#d9d9d9" d="M 224.445312 180.609375 L 200.109375 180.609375 C 199.902344 180.609375 199.734375 180.441406 199.734375 180.234375 L 199.734375 177.574219 C 199.734375 177.367188 199.902344 177.199219 200.109375 177.199219 L 224.445312 177.199219 C 224.652344 177.199219 224.820312 177.367188 224.820312 177.574219 L 224.820312 180.234375 C 224.820312 180.441406 224.652344 180.609375 224.445312 180.609375 Z M 200.484375 179.859375 L 224.070312 179.859375 L 224.070312 177.953125 L 200.484375 177.953125 Z M 200.484375 179.859375 " fill-opacity="1" fill-rule="nonzero"/><path fill="#d9d9d9" d="M 201.984375 155.738281 L 213.378906 155.738281 L 213.378906 156.488281 L 201.984375 156.488281 Z M 201.984375 155.738281 " fill-opacity="1" fill-rule="nonzero"/><path fill="#d9d9d9" d="M 204.835938 139.785156 L 209.496094 139.785156 L 209.496094 140.535156 L 204.835938 140.535156 Z M 204.835938 139.785156 " fill-opacity="1" fill-rule="nonzero"/><path fill="#d9d9d9" d="M 204.703125 185.164062 C 204.703125 185.558594 204.628906 185.9375 204.476562 186.304688 C 204.328125 186.667969 204.113281 186.992188 203.832031 187.273438 C 203.554688 187.550781 203.230469 187.765625 202.867188 187.917969 C 202.5 188.070312 202.121094 188.144531 201.726562 188.144531 C 201.332031 188.144531 200.953125 188.070312 200.585938 187.917969 C 200.222656 187.765625 199.902344 187.550781 199.621094 187.273438 C 199.34375 186.992188 199.128906 186.667969 198.976562 186.304688 C 198.824219 185.9375 198.75 185.558594 198.75 185.164062 C 198.75 184.765625 198.824219 184.386719 198.976562 184.019531 C 199.128906 183.65625 199.34375 183.332031 199.621094 183.054688 C 199.902344 182.773438 200.222656 182.558594 200.585938 182.40625 C 200.953125 182.253906 201.332031 182.179688 201.726562 182.179688 C 202.121094 182.179688 202.5 182.253906 202.867188 182.40625 C 203.230469 182.558594 203.554688 182.773438 203.832031 183.054688 C 204.113281 183.332031 204.328125 183.65625 204.476562 184.019531 C 204.628906 184.386719 204.703125 184.765625 204.703125 185.164062 Z M 204.703125 185.164062 " fill-opacity="1" fill-rule="nonzero"/><path fill="#d9d9d9" d="M 201.726562 188.519531 C 199.878906 188.519531 198.375 187.015625 198.375 185.164062 C 198.375 183.3125 199.878906 181.804688 201.726562 181.804688 C 203.574219 181.804688 205.078125 183.3125 205.078125 185.164062 C 205.078125 187.015625 203.574219 188.519531 201.726562 188.519531 Z M 201.726562 182.554688 C 200.292969 182.554688 199.125 183.726562 199.125 185.164062 C 199.125 186.601562 200.292969 187.769531 201.726562 187.769531 C 203.164062 187.769531 204.328125 186.601562 204.328125 185.164062 C 204.328125 183.726562 203.164062 182.554688 201.726562 182.554688 Z M 201.726562 182.554688 " fill-opacity="1" fill-rule="nonzero"/><path fill="#d9d9d9" d="M 208.414062 196.1875 L 221.015625 196.1875 L 221.015625 200.078125 L 208.414062 200.078125 Z M 208.414062 196.1875 " fill-opacity="1" fill-rule="nonzero"/><path fill="#d9d9d9" d="M 120.09375 179.097656 L 119.246094 179.097656 L 119.246094 174.460938 L 120.09375 174.460938 C 121.375 174.460938 122.410156 175.5 122.410156 176.78125 C 122.410156 178.0625 121.375 179.097656 120.09375 179.097656 Z M 120.09375 179.097656 " fill-opacity="1" fill-rule="nonzero"/><path fill="#d9d9d9" d="M 120.09375 179.476562 L 119.246094 179.476562 C 119.039062 179.476562 118.871094 179.308594 118.871094 179.097656 L 118.871094 174.460938 C 118.871094 174.253906 119.039062 174.085938 119.246094 174.085938 L 120.09375 174.085938 C 121.578125 174.085938 122.785156 175.292969 122.785156 176.78125 C 122.785156 178.265625 121.578125 179.476562 120.09375 179.476562 Z M 119.621094 178.722656 L 120.09375 178.722656 C 121.164062 178.722656 122.035156 177.851562 122.035156 176.78125 C 122.035156 175.707031 121.164062 174.835938 120.09375 174.835938 L 119.621094 174.835938 Z M 119.621094 178.722656 " fill-opacity="1" fill-rule="nonzero"/><path fill="#d9d9d9" d="M 88.8125 206.824219 L 101.886719 206.824219 L 101.886719 209.257812 L 88.8125 209.257812 Z M 88.8125 206.824219 " fill-opacity="1" fill-rule="nonzero"/><path fill="#d9d9d9" d="M 279.746094 212.960938 L 294.847656 212.960938 L 294.847656 218.320312 L 279.746094 218.320312 Z M 279.746094 212.960938 " fill-opacity="1" fill-rule="nonzero"/><path fill="#d9d9d9" d="M 294.847656 218.695312 L 279.746094 218.695312 C 279.539062 218.695312 279.371094 218.527344 279.371094 218.320312 L 279.371094 212.960938 C 279.371094 212.753906 279.539062 212.582031 279.746094 212.582031 L 294.847656 212.582031 C 295.054688 212.582031 295.222656 212.753906 295.222656 212.960938 L 295.222656 218.320312 C 295.222656 218.527344 295.054688 218.695312 294.847656 218.695312 Z M 280.121094 217.945312 L 294.472656 217.945312 L 294.472656 213.335938 L 280.121094 213.335938 Z M 280.121094 217.945312 " fill-opacity="1" fill-rule="nonzero"/><path fill="#d9d9d9" d="M 329.96875 214.773438 L 337.707031 214.773438 L 337.707031 219.820312 L 329.96875 219.820312 Z M 329.96875 214.773438 " fill-opacity="1" fill-rule="nonzero"/><path fill="#d9d9d9" d="M 261.277344 217.195312 L 359.058594 217.195312 L 359.058594 227.371094 L 261.277344 227.371094 Z M 261.277344 217.195312 " fill-opacity="1" fill-rule="nonzero"/><path fill="#d9d9d9" d="M 359.058594 227.746094 L 261.277344 227.746094 C 261.070312 227.746094 260.902344 227.578125 260.902344 227.371094 L 260.902344 217.195312 C 260.902344 216.988281 261.070312 216.820312 261.277344 216.820312 L 359.058594 216.820312 C 359.265625 216.820312 359.433594 216.988281 359.433594 217.195312 L 359.433594 227.371094 C 359.433594 227.578125 359.265625 227.746094 359.058594 227.746094 Z M 261.652344 226.996094 L 358.683594 226.996094 L 358.683594 217.570312 L 261.652344 217.570312 Z M 261.652344 226.996094 " fill-opacity="1" fill-rule="nonzero"/><path fill="#d9d9d9" d="M 241.339844 195.820312 L 250.144531 195.820312 L 250.144531 212.179688 L 241.339844 212.179688 Z M 241.339844 195.820312 " fill-opacity="1" fill-rule="nonzero"/><path fill="#d9d9d9" d="M 252.300781 197.136719 L 238.707031 197.136719 L 238.707031 194.023438 C 238.707031 192.210938 240.175781 190.738281 241.988281 190.738281 L 249.023438 190.738281 C 250.832031 190.738281 252.300781 192.210938 252.300781 194.023438 Z M 252.300781 197.136719 " fill-opacity="1" fill-rule="nonzero"/><path fill="#d9d9d9" d="M 252.300781 197.511719 L 238.707031 197.511719 C 238.5 197.511719 238.332031 197.34375 238.332031 197.136719 L 238.332031 194.023438 C 238.332031 192.007812 239.972656 190.363281 241.988281 190.363281 L 249.023438 190.363281 C 251.035156 190.363281 252.675781 192.007812 252.675781 194.023438 L 252.675781 197.136719 C 252.675781 197.34375 252.507812 197.511719 252.300781 197.511719 Z M 239.082031 196.761719 L 251.925781 196.761719 L 251.925781 194.023438 C 251.925781 192.421875 250.625 191.113281 249.023438 191.113281 L 241.988281 191.113281 C 240.386719 191.113281 239.082031 192.421875 239.082031 194.023438 Z M 239.082031 196.761719 " fill-opacity="1" fill-rule="nonzero"/><path fill="#d9d9d9" d="M 134.539062 209.257812 C 135.359375 209.15625 157.625 178.949219 157.625 178.949219 L 159.09375 179.84375 L 136.828125 210.453125 Z M 134.539062 209.257812 " fill-opacity="1" fill-rule="nonzero"/><path fill="#d9d9d9" d="M 129.578125 151.574219 L 132.425781 151.574219 L 132.425781 176.78125 L 129.578125 176.78125 Z M 129.578125 151.574219 " fill-opacity="1" fill-rule="nonzero"/><path fill="#d9d9d9" d="M 106.597656 186.285156 L 117.085938 186.285156 L 117.085938 190.523438 L 106.597656 190.523438 Z M 106.597656 186.285156 " fill-opacity="1" fill-rule="nonzero"/><path fill="#d9d9d9" d="M 117.085938 190.898438 L 106.597656 190.898438 C 106.390625 190.898438 106.222656 190.730469 106.222656 190.523438 L 106.222656 186.285156 C 106.222656 186.078125 106.390625 185.910156 106.597656 185.910156 L 117.085938 185.910156 C 117.292969 185.910156 117.460938 186.078125 117.460938 186.285156 L 117.460938 190.523438 C 117.460938 190.730469 117.292969 190.898438 117.085938 190.898438 Z M 106.972656 190.148438 L 116.710938 190.148438 L 116.710938 186.664062 L 106.972656 186.664062 Z M 106.972656 190.148438 " fill-opacity="1" fill-rule="nonzero"/><path fill="#d9d9d9" d="M 127.742188 171.503906 L 134.539062 171.503906 L 134.539062 186.394531 L 127.742188 186.394531 Z M 127.742188 171.503906 " fill-opacity="1" fill-rule="nonzero"/><path fill="#d9d9d9" d="M 64.128906 213.710938 L 79.160156 213.710938 L 79.160156 216.503906 L 64.128906 216.503906 Z M 64.128906 213.710938 " fill-opacity="1" fill-rule="nonzero"/><path fill="#d9d9d9" d="M 120.945312 179.457031 L 136.351562 179.457031 L 136.351562 196.574219 L 120.945312 196.574219 Z M 120.945312 179.457031 " fill-opacity="1" fill-rule="nonzero"/><path fill="#d9d9d9" d="M 136.351562 196.949219 L 120.945312 196.949219 C 120.738281 196.949219 120.570312 196.78125 120.570312 196.574219 L 120.570312 179.457031 C 120.570312 179.25 120.738281 179.082031 120.945312 179.082031 L 136.351562 179.082031 C 136.558594 179.082031 136.726562 179.25 136.726562 179.457031 L 136.726562 196.574219 C 136.726562 196.78125 136.558594 196.949219 136.351562 196.949219 Z M 121.320312 196.199219 L 135.976562 196.199219 L 135.976562 179.832031 L 121.320312 179.832031 Z M 121.320312 196.199219 " fill-opacity="1" fill-rule="nonzero"/><path fill="#d9d9d9" d="M 142.953125 208.378906 L 142.953125 191.257812 L 105.671875 191.257812 L 105.671875 208.378906 L 84.890625 208.378906 L 83.199219 226.015625 L 263.78125 226.015625 L 263.78125 208.378906 Z M 142.953125 208.378906 " fill-opacity="1" fill-rule="nonzero"/><path fill="#d9d9d9" d="M 263.78125 226.390625 L 83.199219 226.390625 C 83.09375 226.390625 82.992188 226.34375 82.921875 226.265625 C 82.851562 226.1875 82.816406 226.085938 82.828125 225.980469 L 84.515625 208.339844 C 84.535156 208.148438 84.695312 208 84.890625 208 L 105.296875 208 L 105.296875 191.257812 C 105.296875 191.050781 105.464844 190.882812 105.671875 190.882812 L 142.953125 190.882812 C 143.160156 190.882812 143.328125 191.050781 143.328125 191.257812 L 143.328125 208 L 263.78125 208 C 263.988281 208 264.15625 208.167969 264.15625 208.378906 L 264.15625 226.015625 C 264.15625 226.222656 263.988281 226.390625 263.78125 226.390625 Z M 83.613281 225.640625 L 263.40625 225.640625 L 263.40625 208.753906 L 142.953125 208.753906 C 142.746094 208.753906 142.578125 208.585938 142.578125 208.378906 L 142.578125 191.632812 L 106.046875 191.632812 L 106.046875 208.378906 C 106.046875 208.585938 105.878906 208.753906 105.671875 208.753906 L 85.230469 208.753906 Z M 83.613281 225.640625 " fill-opacity="1" fill-rule="nonzero"/><path fill="#d9d9d9" d="M 156.503906 211.75 L 187.574219 211.75 L 187.574219 217.757812 L 156.503906 217.757812 Z M 156.503906 211.75 " fill-opacity="1" fill-rule="nonzero"/><path fill="#d9d9d9" d="M 200.445312 211.75 L 231.515625 211.75 L 231.515625 217.757812 L 200.445312 217.757812 Z M 200.445312 211.75 " fill-opacity="1" fill-rule="nonzero"/><g clip-path="url(#86c5e59d26)"><path fill="#d9d9d9" d="M 218.730469 222.253906 L 218.730469 215.496094 L 168.671875 215.496094 L 168.671875 222.253906 L 142.953125 222.253906 L 136.914062 215.496094 L 0.375 215.496094 C 0.375 218.234375 20.035156 239.242188 20.035156 239.242188 L 365.898438 239.242188 L 373.320312 229.90625 L 374.613281 222.253906 Z M 218.730469 222.253906 " fill-opacity="1" fill-rule="nonzero"/><path fill="#d9d9d9" d="M 365.898438 239.617188 L 20.035156 239.617188 C 19.929688 239.617188 19.832031 239.574219 19.761719 239.5 C 19.710938 239.449219 14.785156 234.179688 9.921875 228.644531 C 0 217.347656 0 215.957031 0 215.496094 C 0 215.289062 0.167969 215.121094 0.375 215.121094 L 136.914062 215.121094 C 137.019531 215.121094 137.121094 215.167969 137.191406 215.246094 L 143.121094 221.878906 L 168.296875 221.878906 L 168.296875 215.496094 C 168.296875 215.289062 168.464844 215.121094 168.671875 215.121094 L 218.730469 215.121094 C 218.9375 215.121094 219.105469 215.289062 219.105469 215.496094 L 219.105469 221.878906 L 374.613281 221.878906 C 374.726562 221.878906 374.832031 221.925781 374.902344 222.011719 C 374.972656 222.097656 375.003906 222.207031 374.984375 222.316406 L 373.691406 229.96875 C 373.679688 230.03125 373.652344 230.089844 373.613281 230.140625 L 366.191406 239.476562 C 366.121094 239.566406 366.011719 239.617188 365.898438 239.617188 Z M 20.195312 238.867188 L 365.71875 238.867188 L 372.96875 229.746094 L 374.171875 222.628906 L 218.730469 222.628906 C 218.523438 222.628906 218.355469 222.460938 218.355469 222.253906 L 218.355469 215.871094 L 169.046875 215.871094 L 169.046875 222.253906 C 169.046875 222.460938 168.878906 222.628906 168.671875 222.628906 L 142.953125 222.628906 C 142.847656 222.628906 142.746094 222.582031 142.675781 222.503906 L 136.746094 215.871094 L 0.847656 215.871094 C 1.242188 216.851562 3.085938 219.726562 10.484375 228.148438 C 14.9375 233.214844 19.441406 238.054688 20.195312 238.867188 Z M 20.195312 238.867188 " fill-opacity="1" fill-rule="nonzero"/></g><path fill="#d9d9d9" d="M 64.453125 211.859375 C 59.773438 211.375 47.539062 210.109375 47.105469 210.09375 L 47.113281 209.34375 C 47.484375 209.34375 62.785156 210.933594 64.53125 211.113281 Z M 64.453125 211.859375 " fill-opacity="1" fill-rule="nonzero"/><path fill="#d9d9d9" d="M 65.378906 212.742188 C 60.699219 212.257812 48.464844 210.992188 48.035156 210.976562 L 48.039062 210.226562 C 48.410156 210.226562 63.714844 211.816406 65.457031 211.996094 Z M 65.378906 212.742188 " fill-opacity="1" fill-rule="nonzero"/><path fill="#d9d9d9" d="M 66.105469 213.625 C 61.429688 213.140625 49.191406 211.875 48.761719 211.863281 L 48.765625 211.109375 C 49.136719 211.109375 64.441406 212.699219 66.183594 212.878906 Z M 66.105469 213.625 " fill-opacity="1" fill-rule="nonzero"/><path fill="#d9d9d9" d="M 80.476562 214.101562 L 62.476562 214.101562 L 63.828125 210.046875 L 80.476562 210.046875 C 81.390625 210.046875 82.128906 210.789062 82.128906 211.703125 L 82.128906 212.449219 C 82.128906 213.363281 81.390625 214.101562 80.476562 214.101562 Z M 80.476562 214.101562 " fill-opacity="1" fill-rule="nonzero"/><path fill="#d9d9d9" d="M 80.476562 214.476562 L 62.476562 214.476562 C 62.355469 214.476562 62.242188 214.417969 62.171875 214.320312 C 62.101562 214.222656 62.082031 214.097656 62.121094 213.984375 L 63.472656 209.929688 C 63.527344 209.777344 63.667969 209.671875 63.828125 209.671875 L 80.476562 209.671875 C 81.59375 209.671875 82.503906 210.582031 82.503906 211.703125 L 82.503906 212.449219 C 82.503906 213.566406 81.59375 214.476562 80.476562 214.476562 Z M 62.996094 213.726562 L 80.476562 213.726562 C 81.183594 213.726562 81.753906 213.152344 81.753906 212.449219 L 81.753906 211.703125 C 81.753906 210.996094 81.183594 210.421875 80.476562 210.421875 L 64.097656 210.421875 Z M 62.996094 213.726562 " fill-opacity="1" fill-rule="nonzero"/><path fill="#d9d9d9" d="M 89.089844 205.265625 C 85.023438 204.84375 74.394531 203.746094 74.003906 203.730469 L 74.011719 202.980469 C 74.328125 202.980469 86.691406 204.261719 89.164062 204.519531 Z M 89.089844 205.265625 " fill-opacity="1" fill-rule="nonzero"/><path fill="#d9d9d9" d="M 89.894531 206.035156 C 85.832031 205.613281 75.203125 204.511719 74.808594 204.5 L 74.816406 203.746094 C 75.136719 203.746094 87.496094 205.03125 89.972656 205.285156 Z M 89.894531 206.035156 " fill-opacity="1" fill-rule="nonzero"/><path fill="#d9d9d9" d="M 90.527344 206.800781 C 86.464844 206.378906 75.832031 205.28125 75.441406 205.265625 L 75.449219 204.515625 C 75.769531 204.515625 88.128906 205.796875 90.605469 206.054688 Z M 90.527344 206.800781 " fill-opacity="1" fill-rule="nonzero"/><path fill="#d9d9d9" d="M 103.03125 207.167969 L 87.371094 207.167969 L 88.550781 203.640625 L 103.03125 203.640625 C 103.824219 203.640625 104.46875 204.285156 104.46875 205.078125 L 104.46875 205.726562 C 104.46875 206.523438 103.824219 207.167969 103.03125 207.167969 Z M 103.03125 207.167969 " fill-opacity="1" fill-rule="nonzero"/><path fill="#d9d9d9" d="M 103.03125 207.542969 L 87.371094 207.542969 C 87.253906 207.542969 87.140625 207.484375 87.070312 207.386719 C 87 207.289062 86.980469 207.164062 87.015625 207.046875 L 88.195312 203.523438 C 88.246094 203.367188 88.390625 203.265625 88.550781 203.265625 L 103.03125 203.265625 C 104.03125 203.265625 104.84375 204.078125 104.84375 205.078125 L 104.84375 205.726562 C 104.84375 206.730469 104.03125 207.542969 103.03125 207.542969 Z M 87.894531 206.792969 L 103.03125 206.792969 C 103.617188 206.792969 104.09375 206.316406 104.09375 205.726562 L 104.09375 205.078125 C 104.09375 204.492188 103.617188 204.015625 103.03125 204.015625 L 88.820312 204.015625 Z M 87.894531 206.792969 " fill-opacity="1" fill-rule="nonzero"/><path fill="#d9d9d9" d="M 127.550781 183 L 145.15625 183 L 145.15625 188.015625 L 127.550781 188.015625 Z M 127.550781 183 " fill-opacity="1" fill-rule="nonzero"/><path fill="#d9d9d9" d="M 145.15625 188.390625 L 127.550781 188.390625 C 127.34375 188.390625 127.175781 188.222656 127.175781 188.015625 L 127.175781 183 C 127.175781 182.792969 127.34375 182.625 127.550781 182.625 L 145.15625 182.625 C 145.363281 182.625 145.53125 182.792969 145.53125 183 L 145.53125 188.015625 C 145.53125 188.222656 145.363281 188.390625 145.15625 188.390625 Z M 127.925781 187.640625 L 144.78125 187.640625 L 144.78125 183.375 L 127.925781 183.375 Z M 127.925781 187.640625 " fill-opacity="1" fill-rule="nonzero"/><path fill="#d9d9d9" d="M 125.152344 174.851562 L 141.402344 174.851562 L 141.402344 178.484375 L 125.152344 178.484375 Z M 125.152344 174.851562 " fill-opacity="1" fill-rule="nonzero"/><path fill="#d9d9d9" d="M 141.402344 178.859375 L 125.152344 178.859375 C 124.945312 178.859375 124.777344 178.691406 124.777344 178.484375 L 124.777344 174.851562 C 124.777344 174.644531 124.945312 174.476562 125.152344 174.476562 L 141.402344 174.476562 C 141.609375 174.476562 141.777344 174.644531 141.777344 174.851562 L 141.777344 178.484375 C 141.777344 178.691406 141.609375 178.859375 141.402344 178.859375 Z M 125.527344 178.109375 L 141.027344 178.109375 L 141.027344 175.226562 L 125.527344 175.226562 Z M 125.527344 178.109375 " fill-opacity="1" fill-rule="nonzero"/><path fill="#d9d9d9" d="M 125.152344 169.6875 L 141.402344 169.6875 L 141.402344 173.316406 L 125.152344 173.316406 Z M 125.152344 169.6875 " fill-opacity="1" fill-rule="nonzero"/><path fill="#d9d9d9" d="M 141.402344 173.695312 L 125.152344 173.695312 C 124.945312 173.695312 124.777344 173.523438 124.777344 173.316406 L 124.777344 169.6875 C 124.777344 169.480469 124.945312 169.3125 125.152344 169.3125 L 141.402344 169.3125 C 141.609375 169.3125 141.777344 169.480469 141.777344 169.6875 L 141.777344 173.316406 C 141.777344 173.523438 141.609375 173.695312 141.402344 173.695312 Z M 125.527344 172.941406 L 141.027344 172.941406 L 141.027344 170.0625 L 125.527344 170.0625 Z M 125.527344 172.941406 " fill-opacity="1" fill-rule="nonzero"/><path fill="#d9d9d9" d="M 100.40625 189.398438 L 119.394531 189.398438 L 119.394531 193.246094 L 100.40625 193.246094 Z M 100.40625 189.398438 " fill-opacity="1" fill-rule="nonzero"/><path fill="#d9d9d9" d="M 119.394531 193.621094 L 100.40625 193.621094 C 100.199219 193.621094 100.03125 193.453125 100.03125 193.246094 L 100.03125 189.398438 C 100.03125 189.191406 100.199219 189.023438 100.40625 189.023438 L 119.394531 189.023438 C 119.601562 189.023438 119.769531 189.191406 119.769531 189.398438 L 119.769531 193.246094 C 119.769531 193.453125 119.601562 193.621094 119.394531 193.621094 Z M 100.78125 192.871094 L 119.019531 192.871094 L 119.019531 189.773438 L 100.78125 189.773438 Z M 100.78125 192.871094 " fill-opacity="1" fill-rule="nonzero"/><path fill="#d9d9d9" d="M 136.605469 159.9375 L 125.609375 159.9375 L 124.765625 153.972656 L 137.453125 153.972656 Z M 136.605469 159.9375 " fill-opacity="1" fill-rule="nonzero"/><path fill="#d9d9d9" d="M 136.605469 160.3125 L 125.609375 160.3125 C 125.425781 160.3125 125.265625 160.175781 125.238281 159.992188 L 124.394531 154.023438 C 124.378906 153.917969 124.410156 153.808594 124.484375 153.726562 C 124.554688 153.644531 124.65625 153.597656 124.765625 153.597656 L 137.453125 153.597656 C 137.5625 153.597656 137.664062 153.644531 137.734375 153.726562 C 137.804688 153.808594 137.839844 153.917969 137.824219 154.023438 L 136.976562 159.992188 C 136.953125 160.175781 136.792969 160.3125 136.605469 160.3125 Z M 125.9375 159.5625 L 136.28125 159.5625 L 137.019531 154.347656 L 125.199219 154.347656 Z M 125.9375 159.5625 " fill-opacity="1" fill-rule="nonzero"/><path fill="#d9d9d9" d="M 122.46875 159.855469 L 123.21875 159.855469 L 123.21875 164.464844 L 122.46875 164.464844 Z M 122.46875 159.855469 " fill-opacity="1" fill-rule="nonzero"/><path fill="#d9d9d9" d="M 121.320312 160.410156 L 123.722656 160.410156 L 123.722656 161.160156 L 121.320312 161.160156 Z M 121.320312 160.410156 " fill-opacity="1" fill-rule="nonzero"/><path fill="#d9d9d9" d="M 121.320312 163.820312 L 130.84375 163.820312 L 130.84375 167.078125 L 121.320312 165.808594 Z M 121.320312 163.820312 " fill-opacity="1" fill-rule="nonzero"/><path fill="#d9d9d9" d="M 133.085938 159.5625 L 144.132812 159.5625 L 144.132812 160.3125 L 133.085938 160.3125 Z M 133.085938 159.5625 " fill-opacity="1" fill-rule="nonzero"/><path fill="#d9d9d9" d="M 140.507812 146.429688 L 141.257812 146.429688 L 141.257812 162.511719 L 140.507812 162.511719 Z M 140.507812 146.429688 " fill-opacity="1" fill-rule="nonzero"/><path fill="#d9d9d9" d="M 138.609375 148.90625 L 143.300781 148.90625 L 143.300781 149.65625 L 138.609375 149.65625 Z M 138.609375 148.90625 " fill-opacity="1" fill-rule="nonzero"/><path fill="#d9d9d9" d="M 98.191406 187.136719 L 98.25 186.386719 L 105.179688 186.90625 L 105.125 187.65625 Z M 98.191406 187.136719 " fill-opacity="1" fill-rule="nonzero"/><path fill="#d9d9d9" d="M 101.476562 187.035156 L 102.226562 187.035156 L 102.226562 189.398438 L 101.476562 189.398438 Z M 101.476562 187.035156 " fill-opacity="1" fill-rule="nonzero"/><path fill="#d9d9d9" d="M 113.050781 201.894531 L 123.082031 201.894531 L 123.082031 207.167969 L 113.050781 207.167969 Z M 113.050781 201.894531 " fill-opacity="1" fill-rule="nonzero"/><path fill="#d9d9d9" d="M 187.574219 205.695312 L 233.917969 205.695312 L 233.917969 210.453125 L 187.574219 210.453125 Z M 187.574219 205.695312 " fill-opacity="1" fill-rule="nonzero"/><path fill="#d9d9d9" d="M 233.917969 210.828125 L 187.574219 210.828125 C 187.367188 210.828125 187.199219 210.660156 187.199219 210.453125 L 187.199219 205.695312 C 187.199219 205.488281 187.367188 205.320312 187.574219 205.320312 L 233.917969 205.320312 C 234.125 205.320312 234.292969 205.488281 234.292969 205.695312 L 234.292969 210.453125 C 234.292969 210.660156 234.125 210.828125 233.917969 210.828125 Z M 187.949219 210.078125 L 233.542969 210.078125 L 233.542969 206.074219 L 187.949219 206.074219 Z M 187.949219 210.078125 " fill-opacity="1" fill-rule="nonzero"/><path fill="#d9d9d9" d="M 143.394531 217.757812 L 144.859375 214.730469 L 153.800781 214.730469 L 154.546875 217.757812 Z M 143.394531 217.757812 " fill-opacity="1" fill-rule="nonzero"/><path fill="#d9d9d9" d="M 154.546875 218.132812 L 143.394531 218.132812 C 143.265625 218.132812 143.144531 218.066406 143.074219 217.957031 C 143.007812 217.847656 143 217.710938 143.054688 217.59375 L 144.523438 214.566406 C 144.585938 214.4375 144.714844 214.355469 144.859375 214.355469 L 153.800781 214.355469 C 153.972656 214.355469 154.121094 214.472656 154.164062 214.640625 L 154.910156 217.667969 C 154.9375 217.78125 154.914062 217.898438 154.84375 217.988281 C 154.773438 218.082031 154.664062 218.132812 154.546875 218.132812 Z M 143.992188 217.382812 L 154.070312 217.382812 L 153.507812 215.105469 L 145.09375 215.105469 Z M 143.992188 217.382812 " fill-opacity="1" fill-rule="nonzero"/><path fill="#d9d9d9" d="M 145.441406 215.496094 L 146.578125 215.496094 L 146.578125 216.316406 L 145.441406 216.316406 Z M 145.441406 215.496094 " fill-opacity="1" fill-rule="nonzero"/><path fill="#d9d9d9" d="M 147.601562 215.496094 L 148.738281 215.496094 L 148.738281 216.316406 L 147.601562 216.316406 Z M 147.601562 215.496094 " fill-opacity="1" fill-rule="nonzero"/><path fill="#d9d9d9" d="M 144.824219 219.53125 L 159.855469 219.53125 C 161.230469 219.53125 162.507812 218.757812 163.085938 217.507812 C 163.15625 217.351562 163.21875 217.191406 163.265625 217.023438 L 141.097656 217.023438 C 141.097656 217.023438 141.5625 217.851562 142.488281 218.660156 C 143.132812 219.226562 143.96875 219.53125 144.824219 219.53125 Z M 144.824219 219.53125 " fill-opacity="1" fill-rule="nonzero"/><path fill="#d9d9d9" d="M 149.421875 207.792969 L 150.890625 204.769531 L 159.832031 204.769531 L 160.578125 207.792969 Z M 149.421875 207.792969 " fill-opacity="1" fill-rule="nonzero"/><path fill="#d9d9d9" d="M 160.578125 208.167969 L 149.421875 208.167969 C 149.292969 208.167969 149.175781 208.101562 149.105469 207.992188 C 149.039062 207.882812 149.03125 207.746094 149.085938 207.628906 L 150.554688 204.605469 C 150.617188 204.472656 150.746094 204.390625 150.890625 204.390625 L 159.832031 204.390625 C 160.003906 204.390625 160.152344 204.511719 160.195312 204.675781 L 160.941406 207.703125 C 160.96875 207.816406 160.945312 207.933594 160.875 208.023438 C 160.800781 208.117188 160.695312 208.167969 160.578125 208.167969 Z M 150.023438 207.417969 L 160.097656 207.417969 L 159.535156 205.144531 L 151.125 205.144531 Z M 150.023438 207.417969 " fill-opacity="1" fill-rule="nonzero"/><path fill="#d9d9d9" d="M 151.472656 205.535156 L 152.609375 205.535156 L 152.609375 206.351562 L 151.472656 206.351562 Z M 151.472656 205.535156 " fill-opacity="1" fill-rule="nonzero"/><path fill="#d9d9d9" d="M 153.628906 205.535156 L 154.765625 205.535156 L 154.765625 206.351562 L 153.628906 206.351562 Z M 153.628906 205.535156 " fill-opacity="1" fill-rule="nonzero"/><path fill="#d9d9d9" d="M 150.855469 209.566406 L 165.886719 209.566406 C 167.261719 209.566406 168.539062 208.792969 169.117188 207.542969 C 169.1875 207.390625 169.25 207.226562 169.292969 207.058594 L 147.128906 207.058594 C 147.128906 207.058594 147.59375 207.886719 148.519531 208.695312 C 149.164062 209.261719 150 209.566406 150.855469 209.566406 Z M 150.855469 209.566406 " fill-opacity="1" fill-rule="nonzero"/><path fill="#d9d9d9" d="M 147.945312 206.238281 L 147.257812 205.933594 L 158.75 179.695312 C 158.8125 179.550781 158.957031 179.460938 159.109375 179.46875 C 159.265625 179.476562 159.398438 179.578125 159.449219 179.726562 L 168.164062 205.96875 L 167.453125 206.203125 L 159.042969 180.890625 Z M 147.945312 206.238281 " fill-opacity="1" fill-rule="nonzero"/><path fill="#d9d9d9" d="M 234.175781 211.75 L 237.199219 211.75 L 237.199219 214.167969 L 234.175781 214.167969 Z M 234.175781 211.75 " fill-opacity="1" fill-rule="nonzero"/><path fill="#d9d9d9" d="M 128.066406 199.253906 L 131.085938 199.253906 L 131.085938 201.671875 L 128.066406 201.671875 Z M 128.066406 199.253906 " fill-opacity="1" fill-rule="nonzero"/><path fill="#d9d9d9" d="M 241.339844 211.75 L 244.359375 211.75 L 244.359375 214.167969 L 241.339844 214.167969 Z M 241.339844 211.75 " fill-opacity="1" fill-rule="nonzero"/><path fill="#d9d9d9" d="M 248.503906 211.75 L 251.523438 211.75 L 251.523438 214.167969 L 248.503906 214.167969 Z M 248.503906 211.75 " fill-opacity="1" fill-rule="nonzero"/><path fill="#d9d9d9" d="M 255.667969 211.75 L 258.6875 211.75 L 258.6875 214.167969 L 255.667969 214.167969 Z M 255.667969 211.75 " fill-opacity="1" fill-rule="nonzero"/><path fill="#d9d9d9" d="M 270.210938 219.207031 L 275 219.207031 L 275 221.152344 L 270.210938 221.152344 Z M 270.210938 219.207031 " fill-opacity="1" fill-rule="nonzero"/><path fill="#d9d9d9" d="M 300.761719 219.207031 L 305.550781 219.207031 L 305.550781 221.152344 L 300.761719 221.152344 Z M 300.761719 219.207031 " fill-opacity="1" fill-rule="nonzero"/><path fill="#d9d9d9" d="M 309.003906 219.207031 L 313.792969 219.207031 L 313.792969 221.152344 L 309.003906 221.152344 Z M 309.003906 219.207031 " fill-opacity="1" fill-rule="nonzero"/><path fill="#d9d9d9" d="M 26.898438 220.898438 C 26.210938 220.898438 25.652344 220.339844 25.652344 219.65625 C 25.652344 218.96875 26.210938 218.410156 26.898438 218.410156 C 27.582031 218.410156 28.140625 218.96875 28.140625 219.65625 C 28.140625 220.339844 27.582031 220.898438 26.898438 220.898438 Z M 26.898438 219.160156 C 26.625 219.160156 26.402344 219.382812 26.402344 219.65625 C 26.402344 219.925781 26.625 220.148438 26.898438 220.148438 C 27.167969 220.148438 27.390625 219.925781 27.390625 219.65625 C 27.390625 219.382812 27.167969 219.160156 26.898438 219.160156 Z M 26.898438 219.160156 " fill-opacity="1" fill-rule="nonzero"/><path fill="#d9d9d9" d="M 32.566406 220.898438 C 31.878906 220.898438 31.324219 220.339844 31.324219 219.65625 C 31.324219 218.96875 31.878906 218.410156 32.566406 218.410156 C 33.25 218.410156 33.808594 218.96875 33.808594 219.65625 C 33.808594 220.339844 33.25 220.898438 32.566406 220.898438 Z M 32.566406 219.160156 C 32.292969 219.160156 32.074219 219.382812 32.074219 219.65625 C 32.074219 219.925781 32.292969 220.148438 32.566406 220.148438 C 32.839844 220.148438 33.058594 219.925781 33.058594 219.65625 C 33.058594 219.382812 32.839844 219.160156 32.566406 219.160156 Z M 32.566406 219.160156 " fill-opacity="1" fill-rule="nonzero"/><path fill="#d9d9d9" d="M 38.234375 220.898438 C 37.550781 220.898438 36.992188 220.339844 36.992188 219.65625 C 36.992188 218.96875 37.550781 218.410156 38.234375 218.410156 C 38.921875 218.410156 39.480469 218.96875 39.480469 219.65625 C 39.480469 220.339844 38.921875 220.898438 38.234375 220.898438 Z M 38.234375 219.160156 C 37.964844 219.160156 37.742188 219.382812 37.742188 219.65625 C 37.742188 219.925781 37.964844 220.148438 38.234375 220.148438 C 38.507812 220.148438 38.730469 219.925781 38.730469 219.65625 C 38.730469 219.382812 38.507812 219.160156 38.234375 219.160156 Z M 38.234375 219.160156 " fill-opacity="1" fill-rule="nonzero"/><path fill="#d9d9d9" d="M 43.90625 220.898438 C 43.21875 220.898438 42.660156 220.339844 42.660156 219.65625 C 42.660156 218.96875 43.21875 218.410156 43.90625 218.410156 C 44.589844 218.410156 45.148438 218.96875 45.148438 219.65625 C 45.148438 220.339844 44.589844 220.898438 43.90625 220.898438 Z M 43.90625 219.160156 C 43.632812 219.160156 43.410156 219.382812 43.410156 219.65625 C 43.410156 219.925781 43.632812 220.148438 43.90625 220.148438 C 44.175781 220.148438 44.398438 219.925781 44.398438 219.65625 C 44.398438 219.382812 44.175781 219.160156 43.90625 219.160156 Z M 43.90625 219.160156 " fill-opacity="1" fill-rule="nonzero"/><path fill="#d9d9d9" d="M 23.621094 227.042969 C 22.933594 227.042969 22.375 226.484375 22.375 225.796875 C 22.375 225.109375 22.933594 224.550781 23.621094 224.550781 C 24.304688 224.550781 24.863281 225.109375 24.863281 225.796875 C 24.863281 226.484375 24.304688 227.042969 23.621094 227.042969 Z M 23.621094 225.304688 C 23.347656 225.304688 23.125 225.523438 23.125 225.796875 C 23.125 226.070312 23.347656 226.292969 23.621094 226.292969 C 23.890625 226.292969 24.113281 226.070312 24.113281 225.796875 C 24.113281 225.523438 23.890625 225.304688 23.621094 225.304688 Z M 23.621094 225.304688 " fill-opacity="1" fill-rule="nonzero"/><path fill="#d9d9d9" d="M 29.289062 227.042969 C 28.605469 227.042969 28.046875 226.484375 28.046875 225.796875 C 28.046875 225.109375 28.605469 224.550781 29.289062 224.550781 C 29.976562 224.550781 30.53125 225.109375 30.53125 225.796875 C 30.53125 226.484375 29.976562 227.042969 29.289062 227.042969 Z M 29.289062 225.304688 C 29.015625 225.304688 28.796875 225.523438 28.796875 225.796875 C 28.796875 226.070312 29.015625 226.292969 29.289062 226.292969 C 29.5625 226.292969 29.78125 226.070312 29.78125 225.796875 C 29.78125 225.523438 29.5625 225.304688 29.289062 225.304688 Z M 29.289062 225.304688 " fill-opacity="1" fill-rule="nonzero"/><path fill="#d9d9d9" d="M 34.957031 227.042969 C 34.273438 227.042969 33.714844 226.484375 33.714844 225.796875 C 33.714844 225.109375 34.273438 224.550781 34.957031 224.550781 C 35.644531 224.550781 36.203125 225.109375 36.203125 225.796875 C 36.203125 226.484375 35.644531 227.042969 34.957031 227.042969 Z M 34.957031 225.304688 C 34.6875 225.304688 34.464844 225.523438 34.464844 225.796875 C 34.464844 226.070312 34.6875 226.292969 34.957031 226.292969 C 35.230469 226.292969 35.453125 226.070312 35.453125 225.796875 C 35.453125 225.523438 35.230469 225.304688 34.957031 225.304688 Z M 34.957031 225.304688 " fill-opacity="1" fill-rule="nonzero"/><path fill="#d9d9d9" d="M 40.628906 227.042969 C 39.941406 227.042969 39.382812 226.484375 39.382812 225.796875 C 39.382812 225.109375 39.941406 224.550781 40.628906 224.550781 C 41.3125 224.550781 41.871094 225.109375 41.871094 225.796875 C 41.871094 226.484375 41.3125 227.042969 40.628906 227.042969 Z M 40.628906 225.304688 C 40.355469 225.304688 40.132812 225.523438 40.132812 225.796875 C 40.132812 226.070312 40.355469 226.292969 40.628906 226.292969 C 40.898438 226.292969 41.121094 226.070312 41.121094 225.796875 C 41.121094 225.523438 40.898438 225.304688 40.628906 225.304688 Z M 40.628906 225.304688 " fill-opacity="1" fill-rule="nonzero"/><path fill="#d9d9d9" d="M 51.007812 227.042969 C 50.324219 227.042969 49.765625 226.484375 49.765625 225.796875 C 49.765625 225.109375 50.324219 224.550781 51.007812 224.550781 C 51.695312 224.550781 52.253906 225.109375 52.253906 225.796875 C 52.253906 226.484375 51.695312 227.042969 51.007812 227.042969 Z M 51.007812 225.304688 C 50.738281 225.304688 50.515625 225.523438 50.515625 225.796875 C 50.515625 226.070312 50.738281 226.292969 51.007812 226.292969 C 51.28125 226.292969 51.503906 226.070312 51.503906 225.796875 C 51.503906 225.523438 51.28125 225.304688 51.007812 225.304688 Z M 51.007812 225.304688 " fill-opacity="1" fill-rule="nonzero"/><path fill="#d9d9d9" d="M 56.679688 227.042969 C 55.992188 227.042969 55.433594 226.484375 55.433594 225.796875 C 55.433594 225.109375 55.992188 224.550781 56.679688 224.550781 C 57.363281 224.550781 57.921875 225.109375 57.921875 225.796875 C 57.921875 226.484375 57.363281 227.042969 56.679688 227.042969 Z M 56.679688 225.304688 C 56.40625 225.304688 56.183594 225.523438 56.183594 225.796875 C 56.183594 226.070312 56.40625 226.292969 56.679688 226.292969 C 56.949219 226.292969 57.171875 226.070312 57.171875 225.796875 C 57.171875 225.523438 56.949219 225.304688 56.679688 225.304688 Z M 56.679688 225.304688 " fill-opacity="1" fill-rule="nonzero"/><path fill="#d9d9d9" d="M 62.347656 227.042969 C 61.664062 227.042969 61.105469 226.484375 61.105469 225.796875 C 61.105469 225.109375 61.664062 224.550781 62.347656 224.550781 C 63.035156 224.550781 63.589844 225.109375 63.589844 225.796875 C 63.589844 226.484375 63.035156 227.042969 62.347656 227.042969 Z M 62.347656 225.304688 C 62.074219 225.304688 61.855469 225.523438 61.855469 225.796875 C 61.855469 226.070312 62.074219 226.292969 62.347656 226.292969 C 62.621094 226.292969 62.839844 226.070312 62.839844 225.796875 C 62.839844 225.523438 62.621094 225.304688 62.347656 225.304688 Z M 62.347656 225.304688 " fill-opacity="1" fill-rule="nonzero"/><path fill="#d9d9d9" d="M 68.015625 227.042969 C 67.332031 227.042969 66.773438 226.484375 66.773438 225.796875 C 66.773438 225.109375 67.332031 224.550781 68.015625 224.550781 C 68.703125 224.550781 69.261719 225.109375 69.261719 225.796875 C 69.261719 226.484375 68.703125 227.042969 68.015625 227.042969 Z M 68.015625 225.304688 C 67.746094 225.304688 67.523438 225.523438 67.523438 225.796875 C 67.523438 226.070312 67.746094 226.292969 68.015625 226.292969 C 68.289062 226.292969 68.511719 226.070312 68.511719 225.796875 C 68.511719 225.523438 68.289062 225.304688 68.015625 225.304688 Z M 68.015625 225.304688 " fill-opacity="1" fill-rule="nonzero"/><path fill="#d9d9d9" d="M 78.398438 227.042969 C 77.714844 227.042969 77.15625 226.484375 77.15625 225.796875 C 77.15625 225.109375 77.714844 224.550781 78.398438 224.550781 C 79.085938 224.550781 79.640625 225.109375 79.640625 225.796875 C 79.640625 226.484375 79.085938 227.042969 78.398438 227.042969 Z M 78.398438 225.304688 C 78.125 225.304688 77.90625 225.523438 77.90625 225.796875 C 77.90625 226.070312 78.125 226.292969 78.398438 226.292969 C 78.671875 226.292969 78.890625 226.070312 78.890625 225.796875 C 78.890625 225.523438 78.671875 225.304688 78.398438 225.304688 Z M 78.398438 225.304688 " fill-opacity="1" fill-rule="nonzero"/><path fill="#d9d9d9" d="M 84.066406 227.042969 C 83.382812 227.042969 82.824219 226.484375 82.824219 225.796875 C 82.824219 225.109375 83.382812 224.550781 84.066406 224.550781 C 84.753906 224.550781 85.3125 225.109375 85.3125 225.796875 C 85.3125 226.484375 84.753906 227.042969 84.066406 227.042969 Z M 84.066406 225.304688 C 83.796875 225.304688 83.574219 225.523438 83.574219 225.796875 C 83.574219 226.070312 83.796875 226.292969 84.066406 226.292969 C 84.339844 226.292969 84.5625 226.070312 84.5625 225.796875 C 84.5625 225.523438 84.339844 225.304688 84.066406 225.304688 Z M 84.066406 225.304688 " fill-opacity="1" fill-rule="nonzero"/><path fill="#d9d9d9" d="M 89.738281 227.042969 C 89.050781 227.042969 88.492188 226.484375 88.492188 225.796875 C 88.492188 225.109375 89.050781 224.550781 89.738281 224.550781 C 90.421875 224.550781 90.980469 225.109375 90.980469 225.796875 C 90.980469 226.484375 90.421875 227.042969 89.738281 227.042969 Z M 89.738281 225.304688 C 89.464844 225.304688 89.242188 225.523438 89.242188 225.796875 C 89.242188 226.070312 89.464844 226.292969 89.738281 226.292969 C 90.007812 226.292969 90.230469 226.070312 90.230469 225.796875 C 90.230469 225.523438 90.007812 225.304688 89.738281 225.304688 Z M 89.738281 225.304688 " fill-opacity="1" fill-rule="nonzero"/><path fill="#d9d9d9" d="M 95.40625 227.042969 C 94.71875 227.042969 94.164062 226.484375 94.164062 225.796875 C 94.164062 225.109375 94.71875 224.550781 95.40625 224.550781 C 96.089844 224.550781 96.648438 225.109375 96.648438 225.796875 C 96.648438 226.484375 96.089844 227.042969 95.40625 227.042969 Z M 95.40625 225.304688 C 95.132812 225.304688 94.914062 225.523438 94.914062 225.796875 C 94.914062 226.070312 95.132812 226.292969 95.40625 226.292969 C 95.679688 226.292969 95.898438 226.070312 95.898438 225.796875 C 95.898438 225.523438 95.679688 225.304688 95.40625 225.304688 Z M 95.40625 225.304688 " fill-opacity="1" fill-rule="nonzero"/><path fill="#d9d9d9" d="M 105.789062 227.042969 C 105.101562 227.042969 104.546875 226.484375 104.546875 225.796875 C 104.546875 225.109375 105.101562 224.550781 105.789062 224.550781 C 106.472656 224.550781 107.03125 225.109375 107.03125 225.796875 C 107.03125 226.484375 106.472656 227.042969 105.789062 227.042969 Z M 105.789062 225.304688 C 105.515625 225.304688 105.292969 225.523438 105.292969 225.796875 C 105.292969 226.070312 105.515625 226.292969 105.789062 226.292969 C 106.0625 226.292969 106.28125 226.070312 106.28125 225.796875 C 106.28125 225.523438 106.0625 225.304688 105.789062 225.304688 Z M 105.789062 225.304688 " fill-opacity="1" fill-rule="nonzero"/><path fill="#d9d9d9" d="M 111.457031 227.042969 C 110.773438 227.042969 110.214844 226.484375 110.214844 225.796875 C 110.214844 225.109375 110.773438 224.550781 111.457031 224.550781 C 112.144531 224.550781 112.699219 225.109375 112.699219 225.796875 C 112.699219 226.484375 112.144531 227.042969 111.457031 227.042969 Z M 111.457031 225.304688 C 111.183594 225.304688 110.964844 225.523438 110.964844 225.796875 C 110.964844 226.070312 111.183594 226.292969 111.457031 226.292969 C 111.730469 226.292969 111.949219 226.070312 111.949219 225.796875 C 111.949219 225.523438 111.730469 225.304688 111.457031 225.304688 Z M 111.457031 225.304688 " fill-opacity="1" fill-rule="nonzero"/><path fill="#d9d9d9" d="M 117.125 227.042969 C 116.441406 227.042969 115.882812 226.484375 115.882812 225.796875 C 115.882812 225.109375 116.441406 224.550781 117.125 224.550781 C 117.8125 224.550781 118.371094 225.109375 118.371094 225.796875 C 118.371094 226.484375 117.8125 227.042969 117.125 227.042969 Z M 117.125 225.304688 C 116.855469 225.304688 116.632812 225.523438 116.632812 225.796875 C 116.632812 226.070312 116.855469 226.292969 117.125 226.292969 C 117.398438 226.292969 117.621094 226.070312 117.621094 225.796875 C 117.621094 225.523438 117.398438 225.304688 117.125 225.304688 Z M 117.125 225.304688 " fill-opacity="1" fill-rule="nonzero"/><path fill="#d9d9d9" d="M 122.796875 227.042969 C 122.109375 227.042969 121.550781 226.484375 121.550781 225.796875 C 121.550781 225.109375 122.109375 224.550781 122.796875 224.550781 C 123.480469 224.550781 124.039062 225.109375 124.039062 225.796875 C 124.039062 226.484375 123.480469 227.042969 122.796875 227.042969 Z M 122.796875 225.304688 C 122.523438 225.304688 122.300781 225.523438 122.300781 225.796875 C 122.300781 226.070312 122.523438 226.292969 122.796875 226.292969 C 123.066406 226.292969 123.289062 226.070312 123.289062 225.796875 C 123.289062 225.523438 123.066406 225.304688 122.796875 225.304688 Z M 122.796875 225.304688 " fill-opacity="1" fill-rule="nonzero"/><path fill="#d9d9d9" d="M 133.179688 227.042969 C 132.492188 227.042969 131.933594 226.484375 131.933594 225.796875 C 131.933594 225.109375 132.492188 224.550781 133.179688 224.550781 C 133.863281 224.550781 134.421875 225.109375 134.421875 225.796875 C 134.421875 226.484375 133.863281 227.042969 133.179688 227.042969 Z M 133.179688 225.304688 C 132.90625 225.304688 132.683594 225.523438 132.683594 225.796875 C 132.683594 226.070312 132.90625 226.292969 133.179688 226.292969 C 133.449219 226.292969 133.671875 226.070312 133.671875 225.796875 C 133.671875 225.523438 133.449219 225.304688 133.179688 225.304688 Z M 133.179688 225.304688 " fill-opacity="1" fill-rule="nonzero"/><path fill="#d9d9d9" d="M 138.847656 227.042969 C 138.160156 227.042969 137.605469 226.484375 137.605469 225.796875 C 137.605469 225.109375 138.160156 224.550781 138.847656 224.550781 C 139.53125 224.550781 140.089844 225.109375 140.089844 225.796875 C 140.089844 226.484375 139.53125 227.042969 138.847656 227.042969 Z M 138.847656 225.304688 C 138.574219 225.304688 138.351562 225.523438 138.351562 225.796875 C 138.351562 226.070312 138.574219 226.292969 138.847656 226.292969 C 139.117188 226.292969 139.339844 226.070312 139.339844 225.796875 C 139.339844 225.523438 139.117188 225.304688 138.847656 225.304688 Z M 138.847656 225.304688 " fill-opacity="1" fill-rule="nonzero"/><path fill="#d9d9d9" d="M 144.515625 227.042969 C 143.832031 227.042969 143.273438 226.484375 143.273438 225.796875 C 143.273438 225.109375 143.832031 224.550781 144.515625 224.550781 C 145.203125 224.550781 145.757812 225.109375 145.757812 225.796875 C 145.757812 226.484375 145.203125 227.042969 144.515625 227.042969 Z M 144.515625 225.304688 C 144.242188 225.304688 144.023438 225.523438 144.023438 225.796875 C 144.023438 226.070312 144.242188 226.292969 144.515625 226.292969 C 144.789062 226.292969 145.007812 226.070312 145.007812 225.796875 C 145.007812 225.523438 144.789062 225.304688 144.515625 225.304688 Z M 144.515625 225.304688 " fill-opacity="1" fill-rule="nonzero"/><path fill="#d9d9d9" d="M 150.183594 227.042969 C 149.5 227.042969 148.941406 226.484375 148.941406 225.796875 C 148.941406 225.109375 149.5 224.550781 150.183594 224.550781 C 150.871094 224.550781 151.429688 225.109375 151.429688 225.796875 C 151.429688 226.484375 150.871094 227.042969 150.183594 227.042969 Z M 150.183594 225.304688 C 149.914062 225.304688 149.691406 225.523438 149.691406 225.796875 C 149.691406 226.070312 149.914062 226.292969 150.183594 226.292969 C 150.457031 226.292969 150.679688 226.070312 150.679688 225.796875 C 150.679688 225.523438 150.457031 225.304688 150.183594 225.304688 Z M 150.183594 225.304688 " fill-opacity="1" fill-rule="nonzero"/><path fill="#d9d9d9" d="M 160.566406 227.042969 C 159.882812 227.042969 159.324219 226.484375 159.324219 225.796875 C 159.324219 225.109375 159.882812 224.550781 160.566406 224.550781 C 161.253906 224.550781 161.808594 225.109375 161.808594 225.796875 C 161.808594 226.484375 161.253906 227.042969 160.566406 227.042969 Z M 160.566406 225.304688 C 160.296875 225.304688 160.074219 225.523438 160.074219 225.796875 C 160.074219 226.070312 160.296875 226.292969 160.566406 226.292969 C 160.839844 226.292969 161.0625 226.070312 161.0625 225.796875 C 161.0625 225.523438 160.839844 225.304688 160.566406 225.304688 Z M 160.566406 225.304688 " fill-opacity="1" fill-rule="nonzero"/><path fill="#d9d9d9" d="M 166.234375 227.042969 C 165.550781 227.042969 164.992188 226.484375 164.992188 225.796875 C 164.992188 225.109375 165.550781 224.550781 166.234375 224.550781 C 166.921875 224.550781 167.480469 225.109375 167.480469 225.796875 C 167.480469 226.484375 166.921875 227.042969 166.234375 227.042969 Z M 166.234375 225.304688 C 165.964844 225.304688 165.742188 225.523438 165.742188 225.796875 C 165.742188 226.070312 165.964844 226.292969 166.234375 226.292969 C 166.507812 226.292969 166.730469 226.070312 166.730469 225.796875 C 166.730469 225.523438 166.507812 225.304688 166.234375 225.304688 Z M 166.234375 225.304688 " fill-opacity="1" fill-rule="nonzero"/><path fill="#d9d9d9" d="M 171.90625 227.042969 C 171.21875 227.042969 170.660156 226.484375 170.660156 225.796875 C 170.660156 225.109375 171.21875 224.550781 171.90625 224.550781 C 172.589844 224.550781 173.148438 225.109375 173.148438 225.796875 C 173.148438 226.484375 172.589844 227.042969 171.90625 227.042969 Z M 171.90625 225.304688 C 171.632812 225.304688 171.410156 225.523438 171.410156 225.796875 C 171.410156 226.070312 171.632812 226.292969 171.90625 226.292969 C 172.175781 226.292969 172.398438 226.070312 172.398438 225.796875 C 172.398438 225.523438 172.175781 225.304688 171.90625 225.304688 Z M 171.90625 225.304688 " fill-opacity="1" fill-rule="nonzero"/><path fill="#d9d9d9" d="M 177.574219 227.042969 C 176.890625 227.042969 176.332031 226.484375 176.332031 225.796875 C 176.332031 225.109375 176.890625 224.550781 177.574219 224.550781 C 178.261719 224.550781 178.816406 225.109375 178.816406 225.796875 C 178.816406 226.484375 178.261719 227.042969 177.574219 227.042969 Z M 177.574219 225.304688 C 177.300781 225.304688 177.082031 225.523438 177.082031 225.796875 C 177.082031 226.070312 177.300781 226.292969 177.574219 226.292969 C 177.847656 226.292969 178.066406 226.070312 178.066406 225.796875 C 178.066406 225.523438 177.847656 225.304688 177.574219 225.304688 Z M 177.574219 225.304688 " fill-opacity="1" fill-rule="nonzero"/><path fill="#d9d9d9" d="M 187.957031 227.042969 C 187.269531 227.042969 186.714844 226.484375 186.714844 225.796875 C 186.714844 225.109375 187.269531 224.550781 187.957031 224.550781 C 188.640625 224.550781 189.199219 225.109375 189.199219 225.796875 C 189.199219 226.484375 188.640625 227.042969 187.957031 227.042969 Z M 187.957031 225.304688 C 187.683594 225.304688 187.464844 225.523438 187.464844 225.796875 C 187.464844 226.070312 187.683594 226.292969 187.957031 226.292969 C 188.230469 226.292969 188.449219 226.070312 188.449219 225.796875 C 188.449219 225.523438 188.230469 225.304688 187.957031 225.304688 Z M 187.957031 225.304688 " fill-opacity="1" fill-rule="nonzero"/><path fill="#d9d9d9" d="M 193.625 227.042969 C 192.941406 227.042969 192.382812 226.484375 192.382812 225.796875 C 192.382812 225.109375 192.941406 224.550781 193.625 224.550781 C 194.3125 224.550781 194.867188 225.109375 194.867188 225.796875 C 194.867188 226.484375 194.3125 227.042969 193.625 227.042969 Z M 193.625 225.304688 C 193.351562 225.304688 193.132812 225.523438 193.132812 225.796875 C 193.132812 226.070312 193.351562 226.292969 193.625 226.292969 C 193.898438 226.292969 194.121094 226.070312 194.121094 225.796875 C 194.121094 225.523438 193.898438 225.304688 193.625 225.304688 Z M 193.625 225.304688 " fill-opacity="1" fill-rule="nonzero"/><path fill="#d9d9d9" d="M 199.292969 227.042969 C 198.609375 227.042969 198.050781 226.484375 198.050781 225.796875 C 198.050781 225.109375 198.609375 224.550781 199.292969 224.550781 C 199.980469 224.550781 200.539062 225.109375 200.539062 225.796875 C 200.539062 226.484375 199.980469 227.042969 199.292969 227.042969 Z M 199.292969 225.304688 C 199.023438 225.304688 198.800781 225.523438 198.800781 225.796875 C 198.800781 226.070312 199.023438 226.292969 199.292969 226.292969 C 199.566406 226.292969 199.789062 226.070312 199.789062 225.796875 C 199.789062 225.523438 199.566406 225.304688 199.292969 225.304688 Z M 199.292969 225.304688 " fill-opacity="1" fill-rule="nonzero"/><path fill="#d9d9d9" d="M 204.964844 227.042969 C 204.277344 227.042969 203.71875 226.484375 203.71875 225.796875 C 203.71875 225.109375 204.277344 224.550781 204.964844 224.550781 C 205.648438 224.550781 206.207031 225.109375 206.207031 225.796875 C 206.207031 226.484375 205.648438 227.042969 204.964844 227.042969 Z M 204.964844 225.304688 C 204.691406 225.304688 204.46875 225.523438 204.46875 225.796875 C 204.46875 226.070312 204.691406 226.292969 204.964844 226.292969 C 205.234375 226.292969 205.457031 226.070312 205.457031 225.796875 C 205.457031 225.523438 205.234375 225.304688 204.964844 225.304688 Z M 204.964844 225.304688 " fill-opacity="1" fill-rule="nonzero"/><path fill="#d9d9d9" d="M 215.347656 227.042969 C 214.660156 227.042969 214.101562 226.484375 214.101562 225.796875 C 214.101562 225.109375 214.660156 224.550781 215.347656 224.550781 C 216.03125 224.550781 216.589844 225.109375 216.589844 225.796875 C 216.589844 226.484375 216.03125 227.042969 215.347656 227.042969 Z M 215.347656 225.304688 C 215.074219 225.304688 214.851562 225.523438 214.851562 225.796875 C 214.851562 226.070312 215.074219 226.292969 215.347656 226.292969 C 215.617188 226.292969 215.839844 226.070312 215.839844 225.796875 C 215.839844 225.523438 215.617188 225.304688 215.347656 225.304688 Z M 215.347656 225.304688 " fill-opacity="1" fill-rule="nonzero"/><path fill="#d9d9d9" d="M 221.015625 227.042969 C 220.328125 227.042969 219.773438 226.484375 219.773438 225.796875 C 219.773438 225.109375 220.328125 224.550781 221.015625 224.550781 C 221.699219 224.550781 222.257812 225.109375 222.257812 225.796875 C 222.257812 226.484375 221.699219 227.042969 221.015625 227.042969 Z M 221.015625 225.304688 C 220.742188 225.304688 220.519531 225.523438 220.519531 225.796875 C 220.519531 226.070312 220.742188 226.292969 221.015625 226.292969 C 221.289062 226.292969 221.507812 226.070312 221.507812 225.796875 C 221.507812 225.523438 221.289062 225.304688 221.015625 225.304688 Z M 221.015625 225.304688 " fill-opacity="1" fill-rule="nonzero"/><path fill="#d9d9d9" d="M 226.683594 227.042969 C 226 227.042969 225.441406 226.484375 225.441406 225.796875 C 225.441406 225.109375 226 224.550781 226.683594 224.550781 C 227.371094 224.550781 227.925781 225.109375 227.925781 225.796875 C 227.925781 226.484375 227.371094 227.042969 226.683594 227.042969 Z M 226.683594 225.304688 C 226.410156 225.304688 226.191406 225.523438 226.191406 225.796875 C 226.191406 226.070312 226.410156 226.292969 226.683594 226.292969 C 226.957031 226.292969 227.175781 226.070312 227.175781 225.796875 C 227.175781 225.523438 226.957031 225.304688 226.683594 225.304688 Z M 226.683594 225.304688 " fill-opacity="1" fill-rule="nonzero"/><path fill="#d9d9d9" d="M 232.351562 227.042969 C 231.667969 227.042969 231.109375 226.484375 231.109375 225.796875 C 231.109375 225.109375 231.667969 224.550781 232.351562 224.550781 C 233.039062 224.550781 233.597656 225.109375 233.597656 225.796875 C 233.597656 226.484375 233.039062 227.042969 232.351562 227.042969 Z M 232.351562 225.304688 C 232.082031 225.304688 231.859375 225.523438 231.859375 225.796875 C 231.859375 226.070312 232.082031 226.292969 232.351562 226.292969 C 232.625 226.292969 232.847656 226.070312 232.847656 225.796875 C 232.847656 225.523438 232.625 225.304688 232.351562 225.304688 Z M 232.351562 225.304688 " fill-opacity="1" fill-rule="nonzero"/><path fill="#d9d9d9" d="M 242.734375 227.042969 C 242.050781 227.042969 241.492188 226.484375 241.492188 225.796875 C 241.492188 225.109375 242.050781 224.550781 242.734375 224.550781 C 243.421875 224.550781 243.980469 225.109375 243.980469 225.796875 C 243.980469 226.484375 243.421875 227.042969 242.734375 227.042969 Z M 242.734375 225.304688 C 242.464844 225.304688 242.242188 225.523438 242.242188 225.796875 C 242.242188 226.070312 242.464844 226.292969 242.734375 226.292969 C 243.007812 226.292969 243.230469 226.070312 243.230469 225.796875 C 243.230469 225.523438 243.007812 225.304688 242.734375 225.304688 Z M 242.734375 225.304688 " fill-opacity="1" fill-rule="nonzero"/><path fill="#d9d9d9" d="M 248.40625 227.042969 C 247.71875 227.042969 247.160156 226.484375 247.160156 225.796875 C 247.160156 225.109375 247.71875 224.550781 248.40625 224.550781 C 249.089844 224.550781 249.648438 225.109375 249.648438 225.796875 C 249.648438 226.484375 249.089844 227.042969 248.40625 227.042969 Z M 248.40625 225.304688 C 248.132812 225.304688 247.910156 225.523438 247.910156 225.796875 C 247.910156 226.070312 248.132812 226.292969 248.40625 226.292969 C 248.675781 226.292969 248.898438 226.070312 248.898438 225.796875 C 248.898438 225.523438 248.675781 225.304688 248.40625 225.304688 Z M 248.40625 225.304688 " fill-opacity="1" fill-rule="nonzero"/><path fill="#d9d9d9" d="M 254.074219 227.042969 C 253.386719 227.042969 252.832031 226.484375 252.832031 225.796875 C 252.832031 225.109375 253.386719 224.550781 254.074219 224.550781 C 254.757812 224.550781 255.316406 225.109375 255.316406 225.796875 C 255.316406 226.484375 254.757812 227.042969 254.074219 227.042969 Z M 254.074219 225.304688 C 253.800781 225.304688 253.578125 225.523438 253.578125 225.796875 C 253.578125 226.070312 253.800781 226.292969 254.074219 226.292969 C 254.34375 226.292969 254.566406 226.070312 254.566406 225.796875 C 254.566406 225.523438 254.34375 225.304688 254.074219 225.304688 Z M 254.074219 225.304688 " fill-opacity="1" fill-rule="nonzero"/><path fill="#d9d9d9" d="M 259.742188 227.042969 C 259.058594 227.042969 258.5 226.484375 258.5 225.796875 C 258.5 225.109375 259.058594 224.550781 259.742188 224.550781 C 260.429688 224.550781 260.984375 225.109375 260.984375 225.796875 C 260.984375 226.484375 260.429688 227.042969 259.742188 227.042969 Z M 259.742188 225.304688 C 259.46875 225.304688 259.25 225.523438 259.25 225.796875 C 259.25 226.070312 259.46875 226.292969 259.742188 226.292969 C 260.015625 226.292969 260.234375 226.070312 260.234375 225.796875 C 260.234375 225.523438 260.015625 225.304688 259.742188 225.304688 Z M 259.742188 225.304688 " fill-opacity="1" fill-rule="nonzero"/><path fill="#d9d9d9" d="M 270.125 227.042969 C 269.4375 227.042969 268.882812 226.484375 268.882812 225.796875 C 268.882812 225.109375 269.4375 224.550781 270.125 224.550781 C 270.808594 224.550781 271.367188 225.109375 271.367188 225.796875 C 271.367188 226.484375 270.808594 227.042969 270.125 227.042969 Z M 270.125 225.304688 C 269.851562 225.304688 269.632812 225.523438 269.632812 225.796875 C 269.632812 226.070312 269.851562 226.292969 270.125 226.292969 C 270.398438 226.292969 270.617188 226.070312 270.617188 225.796875 C 270.617188 225.523438 270.398438 225.304688 270.125 225.304688 Z M 270.125 225.304688 " fill-opacity="1" fill-rule="nonzero"/><path fill="#d9d9d9" d="M 275.792969 227.042969 C 275.109375 227.042969 274.550781 226.484375 274.550781 225.796875 C 274.550781 225.109375 275.109375 224.550781 275.792969 224.550781 C 276.480469 224.550781 277.035156 225.109375 277.035156 225.796875 C 277.035156 226.484375 276.480469 227.042969 275.792969 227.042969 Z M 275.792969 225.304688 C 275.523438 225.304688 275.300781 225.523438 275.300781 225.796875 C 275.300781 226.070312 275.523438 226.292969 275.792969 226.292969 C 276.066406 226.292969 276.289062 226.070312 276.289062 225.796875 C 276.289062 225.523438 276.066406 225.304688 275.792969 225.304688 Z M 275.792969 225.304688 " fill-opacity="1" fill-rule="nonzero"/><path fill="#d9d9d9" d="M 281.460938 227.042969 C 280.777344 227.042969 280.21875 226.484375 280.21875 225.796875 C 280.21875 225.109375 280.777344 224.550781 281.460938 224.550781 C 282.148438 224.550781 282.707031 225.109375 282.707031 225.796875 C 282.707031 226.484375 282.148438 227.042969 281.460938 227.042969 Z M 281.460938 225.304688 C 281.191406 225.304688 280.96875 225.523438 280.96875 225.796875 C 280.96875 226.070312 281.191406 226.292969 281.460938 226.292969 C 281.734375 226.292969 281.957031 226.070312 281.957031 225.796875 C 281.957031 225.523438 281.734375 225.304688 281.460938 225.304688 Z M 281.460938 225.304688 " fill-opacity="1" fill-rule="nonzero"/><path fill="#d9d9d9" d="M 287.132812 227.042969 C 286.445312 227.042969 285.886719 226.484375 285.886719 225.796875 C 285.886719 225.109375 286.445312 224.550781 287.132812 224.550781 C 287.816406 224.550781 288.375 225.109375 288.375 225.796875 C 288.375 226.484375 287.816406 227.042969 287.132812 227.042969 Z M 287.132812 225.304688 C 286.859375 225.304688 286.636719 225.523438 286.636719 225.796875 C 286.636719 226.070312 286.859375 226.292969 287.132812 226.292969 C 287.402344 226.292969 287.625 226.070312 287.625 225.796875 C 287.625 225.523438 287.402344 225.304688 287.132812 225.304688 Z M 287.132812 225.304688 " fill-opacity="1" fill-rule="nonzero"/><path fill="#d9d9d9" d="M 297.515625 227.042969 C 296.828125 227.042969 296.269531 226.484375 296.269531 225.796875 C 296.269531 225.109375 296.828125 224.550781 297.515625 224.550781 C 298.199219 224.550781 298.757812 225.109375 298.757812 225.796875 C 298.757812 226.484375 298.199219 227.042969 297.515625 227.042969 Z M 297.515625 225.304688 C 297.242188 225.304688 297.019531 225.523438 297.019531 225.796875 C 297.019531 226.070312 297.242188 226.292969 297.515625 226.292969 C 297.785156 226.292969 298.007812 226.070312 298.007812 225.796875 C 298.007812 225.523438 297.785156 225.304688 297.515625 225.304688 Z M 297.515625 225.304688 " fill-opacity="1" fill-rule="nonzero"/><path fill="#d9d9d9" d="M 303.183594 227.042969 C 302.496094 227.042969 301.941406 226.484375 301.941406 225.796875 C 301.941406 225.109375 302.496094 224.550781 303.183594 224.550781 C 303.867188 224.550781 304.425781 225.109375 304.425781 225.796875 C 304.425781 226.484375 303.867188 227.042969 303.183594 227.042969 Z M 303.183594 225.304688 C 302.910156 225.304688 302.691406 225.523438 302.691406 225.796875 C 302.691406 226.070312 302.910156 226.292969 303.183594 226.292969 C 303.457031 226.292969 303.675781 226.070312 303.675781 225.796875 C 303.675781 225.523438 303.457031 225.304688 303.183594 225.304688 Z M 303.183594 225.304688 " fill-opacity="1" fill-rule="nonzero"/><path fill="#d9d9d9" d="M 308.851562 227.042969 C 308.167969 227.042969 307.609375 226.484375 307.609375 225.796875 C 307.609375 225.109375 308.167969 224.550781 308.851562 224.550781 C 309.539062 224.550781 310.09375 225.109375 310.09375 225.796875 C 310.09375 226.484375 309.539062 227.042969 308.851562 227.042969 Z M 308.851562 225.304688 C 308.582031 225.304688 308.359375 225.523438 308.359375 225.796875 C 308.359375 226.070312 308.582031 226.292969 308.851562 226.292969 C 309.125 226.292969 309.347656 226.070312 309.347656 225.796875 C 309.347656 225.523438 309.125 225.304688 308.851562 225.304688 Z M 308.851562 225.304688 " fill-opacity="1" fill-rule="nonzero"/><path fill="#d9d9d9" d="M 314.519531 227.042969 C 313.835938 227.042969 313.277344 226.484375 313.277344 225.796875 C 313.277344 225.109375 313.835938 224.550781 314.519531 224.550781 C 315.207031 224.550781 315.765625 225.109375 315.765625 225.796875 C 315.765625 226.484375 315.207031 227.042969 314.519531 227.042969 Z M 314.519531 225.304688 C 314.25 225.304688 314.027344 225.523438 314.027344 225.796875 C 314.027344 226.070312 314.25 226.292969 314.519531 226.292969 C 314.792969 226.292969 315.015625 226.070312 315.015625 225.796875 C 315.015625 225.523438 314.792969 225.304688 314.519531 225.304688 Z M 314.519531 225.304688 " fill-opacity="1" fill-rule="nonzero"/><path fill="#d9d9d9" d="M 324.902344 227.042969 C 324.21875 227.042969 323.660156 226.484375 323.660156 225.796875 C 323.660156 225.109375 324.21875 224.550781 324.902344 224.550781 C 325.589844 224.550781 326.148438 225.109375 326.148438 225.796875 C 326.148438 226.484375 325.589844 227.042969 324.902344 227.042969 Z M 324.902344 225.304688 C 324.632812 225.304688 324.410156 225.523438 324.410156 225.796875 C 324.410156 226.070312 324.632812 226.292969 324.902344 226.292969 C 325.175781 226.292969 325.398438 226.070312 325.398438 225.796875 C 325.398438 225.523438 325.175781 225.304688 324.902344 225.304688 Z M 324.902344 225.304688 " fill-opacity="1" fill-rule="nonzero"/><path fill="#d9d9d9" d="M 330.574219 227.042969 C 329.886719 227.042969 329.328125 226.484375 329.328125 225.796875 C 329.328125 225.109375 329.886719 224.550781 330.574219 224.550781 C 331.257812 224.550781 331.816406 225.109375 331.816406 225.796875 C 331.816406 226.484375 331.257812 227.042969 330.574219 227.042969 Z M 330.574219 225.304688 C 330.300781 225.304688 330.078125 225.523438 330.078125 225.796875 C 330.078125 226.070312 330.300781 226.292969 330.574219 226.292969 C 330.84375 226.292969 331.066406 226.070312 331.066406 225.796875 C 331.066406 225.523438 330.84375 225.304688 330.574219 225.304688 Z M 330.574219 225.304688 " fill-opacity="1" fill-rule="nonzero"/><path fill="#d9d9d9" d="M 336.242188 227.042969 C 335.554688 227.042969 335 226.484375 335 225.796875 C 335 225.109375 335.554688 224.550781 336.242188 224.550781 C 336.925781 224.550781 337.484375 225.109375 337.484375 225.796875 C 337.484375 226.484375 336.925781 227.042969 336.242188 227.042969 Z M 336.242188 225.304688 C 335.96875 225.304688 335.75 225.523438 335.75 225.796875 C 335.75 226.070312 335.96875 226.292969 336.242188 226.292969 C 336.515625 226.292969 336.734375 226.070312 336.734375 225.796875 C 336.734375 225.523438 336.515625 225.304688 336.242188 225.304688 Z M 336.242188 225.304688 " fill-opacity="1" fill-rule="nonzero"/><path fill="#d9d9d9" d="M 341.910156 227.042969 C 341.226562 227.042969 340.667969 226.484375 340.667969 225.796875 C 340.667969 225.109375 341.226562 224.550781 341.910156 224.550781 C 342.597656 224.550781 343.152344 225.109375 343.152344 225.796875 C 343.152344 226.484375 342.597656 227.042969 341.910156 227.042969 Z M 341.910156 225.304688 C 341.636719 225.304688 341.417969 225.523438 341.417969 225.796875 C 341.417969 226.070312 341.636719 226.292969 341.910156 226.292969 C 342.183594 226.292969 342.40625 226.070312 342.40625 225.796875 C 342.40625 225.523438 342.183594 225.304688 341.910156 225.304688 Z M 341.910156 225.304688 " fill-opacity="1" fill-rule="nonzero"/><path fill="#d9d9d9" d="M 352.292969 227.042969 C 351.605469 227.042969 351.050781 226.484375 351.050781 225.796875 C 351.050781 225.109375 351.605469 224.550781 352.292969 224.550781 C 352.980469 224.550781 353.535156 225.109375 353.535156 225.796875 C 353.535156 226.484375 352.980469 227.042969 352.292969 227.042969 Z M 352.292969 225.304688 C 352.019531 225.304688 351.800781 225.523438 351.800781 225.796875 C 351.800781 226.070312 352.019531 226.292969 352.292969 226.292969 C 352.566406 226.292969 352.785156 226.070312 352.785156 225.796875 C 352.785156 225.523438 352.566406 225.304688 352.292969 225.304688 Z M 352.292969 225.304688 " fill-opacity="1" fill-rule="nonzero"/><path fill="#d9d9d9" d="M 357.960938 227.042969 C 357.277344 227.042969 356.71875 226.484375 356.71875 225.796875 C 356.71875 225.109375 357.277344 224.550781 357.960938 224.550781 C 358.648438 224.550781 359.207031 225.109375 359.207031 225.796875 C 359.207031 226.484375 358.648438 227.042969 357.960938 227.042969 Z M 357.960938 225.304688 C 357.691406 225.304688 357.46875 225.523438 357.46875 225.796875 C 357.46875 226.070312 357.691406 226.292969 357.960938 226.292969 C 358.234375 226.292969 358.457031 226.070312 358.457031 225.796875 C 358.457031 225.523438 358.234375 225.304688 357.960938 225.304688 Z M 357.960938 225.304688 " fill-opacity="1" fill-rule="nonzero"/><path fill="#d9d9d9" d="M 363.632812 227.042969 C 362.945312 227.042969 362.386719 226.484375 362.386719 225.796875 C 362.386719 225.109375 362.945312 224.550781 363.632812 224.550781 C 364.316406 224.550781 364.875 225.109375 364.875 225.796875 C 364.875 226.484375 364.316406 227.042969 363.632812 227.042969 Z M 363.632812 225.304688 C 363.359375 225.304688 363.136719 225.523438 363.136719 225.796875 C 363.136719 226.070312 363.359375 226.292969 363.632812 226.292969 C 363.902344 226.292969 364.125 226.070312 364.125 225.796875 C 364.125 225.523438 363.902344 225.304688 363.632812 225.304688 Z M 363.632812 225.304688 " fill-opacity="1" fill-rule="nonzero"/><path fill="#d9d9d9" d="M 57.640625 220.898438 C 56.957031 220.898438 56.398438 220.339844 56.398438 219.65625 C 56.398438 218.96875 56.957031 218.410156 57.640625 218.410156 C 58.328125 218.410156 58.886719 218.96875 58.886719 219.65625 C 58.886719 220.339844 58.328125 220.898438 57.640625 220.898438 Z M 57.640625 219.160156 C 57.371094 219.160156 57.148438 219.382812 57.148438 219.65625 C 57.148438 219.925781 57.371094 220.148438 57.640625 220.148438 C 57.914062 220.148438 58.136719 219.925781 58.136719 219.65625 C 58.136719 219.382812 57.914062 219.160156 57.640625 219.160156 Z M 57.640625 219.160156 " fill-opacity="1" fill-rule="nonzero"/><path fill="#d9d9d9" d="M 63.3125 220.898438 C 62.625 220.898438 62.066406 220.339844 62.066406 219.65625 C 62.066406 218.96875 62.625 218.410156 63.3125 218.410156 C 63.996094 218.410156 64.554688 218.96875 64.554688 219.65625 C 64.554688 220.339844 63.996094 220.898438 63.3125 220.898438 Z M 63.3125 219.160156 C 63.039062 219.160156 62.816406 219.382812 62.816406 219.65625 C 62.816406 219.925781 63.039062 220.148438 63.3125 220.148438 C 63.582031 220.148438 63.804688 219.925781 63.804688 219.65625 C 63.804688 219.382812 63.582031 219.160156 63.3125 219.160156 Z M 63.3125 219.160156 " fill-opacity="1" fill-rule="nonzero"/><path fill="#d9d9d9" d="M 68.980469 220.898438 C 68.292969 220.898438 67.738281 220.339844 67.738281 219.65625 C 67.738281 218.96875 68.292969 218.410156 68.980469 218.410156 C 69.664062 218.410156 70.222656 218.96875 70.222656 219.65625 C 70.222656 220.339844 69.664062 220.898438 68.980469 220.898438 Z M 68.980469 219.160156 C 68.707031 219.160156 68.488281 219.382812 68.488281 219.65625 C 68.488281 219.925781 68.707031 220.148438 68.980469 220.148438 C 69.253906 220.148438 69.472656 219.925781 69.472656 219.65625 C 69.472656 219.382812 69.253906 219.160156 68.980469 219.160156 Z M 68.980469 219.160156 " fill-opacity="1" fill-rule="nonzero"/><path fill="#d9d9d9" d="M 74.648438 220.898438 C 73.964844 220.898438 73.40625 220.339844 73.40625 219.65625 C 73.40625 218.96875 73.964844 218.410156 74.648438 218.410156 C 75.335938 218.410156 75.890625 218.96875 75.890625 219.65625 C 75.890625 220.339844 75.335938 220.898438 74.648438 220.898438 Z M 74.648438 219.160156 C 74.378906 219.160156 74.15625 219.382812 74.15625 219.65625 C 74.15625 219.925781 74.378906 220.148438 74.648438 220.148438 C 74.921875 220.148438 75.144531 219.925781 75.144531 219.65625 C 75.144531 219.382812 74.921875 219.160156 74.648438 219.160156 Z M 74.648438 219.160156 " fill-opacity="1" fill-rule="nonzero"/><path fill="#d9d9d9" d="M 88.386719 220.898438 C 87.703125 220.898438 87.144531 220.339844 87.144531 219.65625 C 87.144531 218.96875 87.703125 218.410156 88.386719 218.410156 C 89.074219 218.410156 89.628906 218.96875 89.628906 219.65625 C 89.628906 220.339844 89.074219 220.898438 88.386719 220.898438 Z M 88.386719 219.160156 C 88.113281 219.160156 87.894531 219.382812 87.894531 219.65625 C 87.894531 219.925781 88.113281 220.148438 88.386719 220.148438 C 88.660156 220.148438 88.878906 219.925781 88.878906 219.65625 C 88.878906 219.382812 88.660156 219.160156 88.386719 219.160156 Z M 88.386719 219.160156 " fill-opacity="1" fill-rule="nonzero"/><path fill="#d9d9d9" d="M 94.054688 220.898438 C 93.371094 220.898438 92.8125 220.339844 92.8125 219.65625 C 92.8125 218.96875 93.371094 218.410156 94.054688 218.410156 C 94.742188 218.410156 95.300781 218.96875 95.300781 219.65625 C 95.300781 220.339844 94.742188 220.898438 94.054688 220.898438 Z M 94.054688 219.160156 C 93.785156 219.160156 93.5625 219.382812 93.5625 219.65625 C 93.5625 219.925781 93.785156 220.148438 94.054688 220.148438 C 94.328125 220.148438 94.550781 219.925781 94.550781 219.65625 C 94.550781 219.382812 94.328125 219.160156 94.054688 219.160156 Z M 94.054688 219.160156 " fill-opacity="1" fill-rule="nonzero"/><path fill="#d9d9d9" d="M 99.726562 220.898438 C 99.039062 220.898438 98.480469 220.339844 98.480469 219.65625 C 98.480469 218.96875 99.039062 218.410156 99.726562 218.410156 C 100.410156 218.410156 100.96875 218.96875 100.96875 219.65625 C 100.96875 220.339844 100.410156 220.898438 99.726562 220.898438 Z M 99.726562 219.160156 C 99.453125 219.160156 99.230469 219.382812 99.230469 219.65625 C 99.230469 219.925781 99.453125 220.148438 99.726562 220.148438 C 99.996094 220.148438 100.21875 219.925781 100.21875 219.65625 C 100.21875 219.382812 99.996094 219.160156 99.726562 219.160156 Z M 99.726562 219.160156 " fill-opacity="1" fill-rule="nonzero"/><path fill="#d9d9d9" d="M 105.394531 220.898438 C 104.707031 220.898438 104.152344 220.339844 104.152344 219.65625 C 104.152344 218.96875 104.707031 218.410156 105.394531 218.410156 C 106.078125 218.410156 106.636719 218.96875 106.636719 219.65625 C 106.636719 220.339844 106.078125 220.898438 105.394531 220.898438 Z M 105.394531 219.160156 C 105.121094 219.160156 104.902344 219.382812 104.902344 219.65625 C 104.902344 219.925781 105.121094 220.148438 105.394531 220.148438 C 105.667969 220.148438 105.886719 219.925781 105.886719 219.65625 C 105.886719 219.382812 105.667969 219.160156 105.394531 219.160156 Z M 105.394531 219.160156 " fill-opacity="1" fill-rule="nonzero"/><path fill="#d9d9d9" d="M 119.132812 220.898438 C 118.445312 220.898438 117.886719 220.339844 117.886719 219.65625 C 117.886719 218.96875 118.445312 218.410156 119.132812 218.410156 C 119.816406 218.410156 120.375 218.96875 120.375 219.65625 C 120.375 220.339844 119.816406 220.898438 119.132812 220.898438 Z M 119.132812 219.160156 C 118.859375 219.160156 118.636719 219.382812 118.636719 219.65625 C 118.636719 219.925781 118.859375 220.148438 119.132812 220.148438 C 119.402344 220.148438 119.625 219.925781 119.625 219.65625 C 119.625 219.382812 119.402344 219.160156 119.132812 219.160156 Z M 119.132812 219.160156 " fill-opacity="1" fill-rule="nonzero"/><path fill="#d9d9d9" d="M 124.800781 220.898438 C 124.117188 220.898438 123.558594 220.339844 123.558594 219.65625 C 123.558594 218.96875 124.117188 218.410156 124.800781 218.410156 C 125.488281 218.410156 126.042969 218.96875 126.042969 219.65625 C 126.042969 220.339844 125.488281 220.898438 124.800781 220.898438 Z M 124.800781 219.160156 C 124.527344 219.160156 124.308594 219.382812 124.308594 219.65625 C 124.308594 219.925781 124.527344 220.148438 124.800781 220.148438 C 125.074219 220.148438 125.292969 219.925781 125.292969 219.65625 C 125.292969 219.382812 125.074219 219.160156 124.800781 219.160156 Z M 124.800781 219.160156 " fill-opacity="1" fill-rule="nonzero"/><path fill="#d9d9d9" d="M 130.46875 220.898438 C 129.785156 220.898438 129.226562 220.339844 129.226562 219.65625 C 129.226562 218.96875 129.785156 218.410156 130.46875 218.410156 C 131.15625 218.410156 131.714844 218.96875 131.714844 219.65625 C 131.714844 220.339844 131.15625 220.898438 130.46875 220.898438 Z M 130.46875 219.160156 C 130.199219 219.160156 129.976562 219.382812 129.976562 219.65625 C 129.976562 219.925781 130.199219 220.148438 130.46875 220.148438 C 130.742188 220.148438 130.964844 219.925781 130.964844 219.65625 C 130.964844 219.382812 130.742188 219.160156 130.46875 219.160156 Z M 130.46875 219.160156 " fill-opacity="1" fill-rule="nonzero"/><path fill="#d9d9d9" d="M 335.664062 211.441406 L 344.855469 209.136719 L 345.039062 209.863281 L 335.847656 212.171875 Z M 335.664062 211.441406 " fill-opacity="1" fill-rule="nonzero"/><path fill="#d9d9d9" d="M 338.5625 215.496094 L 329.113281 215.496094 L 329.113281 212.851562 C 329.113281 210.238281 331.226562 208.117188 333.835938 208.117188 C 336.445312 208.117188 338.5625 210.238281 338.5625 212.851562 Z M 338.5625 215.496094 " fill-opacity="1" fill-rule="nonzero"/><path fill="#d9d9d9" d="M 338.5625 215.871094 L 329.113281 215.871094 C 328.90625 215.871094 328.738281 215.703125 328.738281 215.496094 L 328.738281 212.851562 C 328.738281 210.035156 331.023438 207.742188 333.835938 207.742188 C 336.648438 207.742188 338.9375 210.035156 338.9375 212.851562 L 338.9375 215.496094 C 338.9375 215.703125 338.769531 215.871094 338.5625 215.871094 Z M 329.488281 215.121094 L 338.1875 215.121094 L 338.1875 212.851562 C 338.1875 210.449219 336.234375 208.492188 333.835938 208.492188 C 331.4375 208.492188 329.488281 210.449219 329.488281 212.851562 Z M 329.488281 215.121094 " fill-opacity="1" fill-rule="nonzero"/></svg>